<?xml version="1.0" encoding="utf-8"?>
<!-- Generator: Adobe Illustrator 22.1.0, SVG Export Plug-In . SVG Version: 6.00 Build 0)  -->
<svg version="1.1" id="图层_1" xmlns="http://www.w3.org/2000/svg" xmlns:xlink="http://www.w3.org/1999/xlink" x="0px" y="0px"
	 viewBox="0 0 1335 600" style="enable-background:new 0 0 1335 600;" xml:space="preserve">
<style type="text/css">
	.st0{fill:none;stroke:#E5E5E5;stroke-width:5;stroke-miterlimit:10;}
	.st1{fill:#E5E5E5;}
	.st2{fill:none;stroke:#E5E5E5;stroke-width:4;stroke-miterlimit:10;}
	.st3{fill:none;stroke:#E5E5E5;stroke-width:4;stroke-miterlimit:10;stroke-dasharray:12.2445,12.2445;}
	.st4{fill:none;stroke:#5DB4C6;stroke-width:5;stroke-miterlimit:10;}
	.st5{fill:none;stroke:#5DB4C6;stroke-width:5;stroke-miterlimit:10;stroke-dasharray:12.027,12.027;}
	.st6{fill:none;stroke:#5DB4C6;stroke-width:5;stroke-miterlimit:10;stroke-dasharray:11.201,11.201;}
	.st7{fill:none;stroke:#E5E5E5;stroke-width:4;stroke-miterlimit:10;stroke-dasharray:11.76,11.76;}
	.st8{fill:#5DB4C6;}
	.st9{fill:#D7817A;}
	.st10{fill:#405360;}
	.st11{opacity:0.2;}
	.st12{fill:#486476;}
	.st13{opacity:0.3;fill:#BABABA;}
	.st14{opacity:0.1;}
	.st15{fill:url(#SVGID_1_);}
	.st16{fill:url(#SVGID_2_);}
	.st17{fill:url(#SVGID_3_);}
	.st18{fill:url(#SVGID_4_);}
	.st19{fill:url(#SVGID_5_);}
	.st20{fill:#60C9DC;}
	.st21{fill:#FFFFFF;}
	.st22{fill:#3384A0;}
	.st23{fill:none;stroke:#5DB4C6;stroke-width:9;stroke-linecap:round;stroke-miterlimit:10;}
	.st24{fill:none;stroke:#5DB4C6;stroke-width:18;stroke-linecap:round;stroke-miterlimit:10;}
</style>
<g>
	<g class="st11">
		<circle class="st9" cx="276" cy="430" r="145"/>
	</g>
	<polygon class="st12" points="219,426 219,44 229,44 229,25 219,25 210,25 210,44 210,426 73,426 73,435 772,435 772,426 	"/>
	<path class="st13" d="M14,402c0,0,301.6,0,384,0s189.5-140,333.7-140s140.1,0,258.5,0s173-83,286.3-83h44.5v256H14V402z"/>
	<g class="st11">
		<circle class="st9" cx="276" cy="430" r="54"/>
	</g>
	<g class="st14">
		<circle class="st9" cx="1142" cy="217" r="130"/>
	</g>
	<g class="st11">
		<circle class="st9" cx="1142" cy="217" r="51"/>
	</g>
	<linearGradient id="SVGID_1_" gradientUnits="userSpaceOnUse" x1="790.9893" y1="484.9449" x2="525.3274" y2="24.805">
		<stop  offset="0" style="stop-color:#2D9BBA"/>
		<stop  offset="1" style="stop-color:#40A1BD"/>
	</linearGradient>
	<path class="st15" d="M1048,309.8h-31.9V355H940v-45.2h-32.9H831v-76.1V137h76.1v96.7H940V137h76.1v96.7h31.9V309.8z M787.9,235.2
		v146.1c0,53.1-43.2,96.2-96.2,96.2c-53.1,0-96.2-43.2-96.2-96.2V235.2c0-53.1,43.2-96.2,96.2-96.2
		C744.8,139,787.9,182.2,787.9,235.2z M706.9,235.2c0-8.3-7-15.2-15.2-15.2s-15.2,7-15.2,15.2v146.1c0,8.3,7,15.2,15.2,15.2
		s15.2-7,15.2-15.2V235.2z M523.7,154h-79.2v190h-34.2V137H331v207v82h79.2h34.2v57h79.2v-57H557v-82h-33.3V154z"/>
	<g>
		<linearGradient id="SVGID_2_" gradientUnits="userSpaceOnUse" x1="978.0151" y1="355" x2="978.0151" y2="354.5">
			<stop  offset="0" style="stop-color:#D7817A;stop-opacity:0.8"/>
			<stop  offset="1" style="stop-color:#D7817A"/>
		</linearGradient>
		<path class="st16" d="M1016.1,354.5c-28,0-52.1,0-76.1,0v0.5h76.1V354.5z"/>
		<linearGradient id="SVGID_3_" gradientUnits="userSpaceOnUse" x1="484.1125" y1="483" x2="484.1125" y2="482.7558">
			<stop  offset="0" style="stop-color:#D7817A;stop-opacity:0.8"/>
			<stop  offset="1" style="stop-color:#D7817A"/>
		</linearGradient>
		<path class="st17" d="M523.7,482.8c-1.3,0-2.7,0.1-4,0.1c-21.3,0-47.7,0-75.2,0v0.2h79.2V482.8z"/>
		<linearGradient id="SVGID_4_" gradientUnits="userSpaceOnUse" x1="704.7802" y1="477.5" x2="704.7802" y2="357.9431">
			<stop  offset="0" style="stop-color:#D7817A;stop-opacity:0.8"/>
			<stop  offset="1" style="stop-color:#D7817A"/>
		</linearGradient>
		<path class="st18" d="M691.7,477.5c53.1,0,96.2-43.2,96.2-96.2v-23.3c-66.4,12.5-115.6,56.9-166.3,89.2
			C639.2,465.8,664.1,477.5,691.7,477.5z"/>
	</g>
	<linearGradient id="SVGID_5_" gradientUnits="userSpaceOnUse" x1="758.5044" y1="579.5" x2="758.5044" y2="283.5836">
		<stop  offset="0" style="stop-color:#E0847B;stop-opacity:0.7"/>
		<stop  offset="1" style="stop-color:#E37F76"/>
	</linearGradient>
	<path class="st19" d="M1185.3,283.6c-82.9,0-88.8,70.9-161.9,70.9c-2.5,0-4.9,0-7.3,0v0.5H940v-0.5c-35.1,0-69.8,0-115.3,0
		c-12.9,0-25.1,1.2-36.7,3.5v23.3c0,53.1-43.2,96.2-96.2,96.2c-0.8,0-1.7,0-2.5,0c-0.3,0-0.5,0-0.8,0c-0.6,0-1.1,0-1.7-0.1
		c-0.3,0-0.6,0-1-0.1c-0.5,0-1-0.1-1.5-0.1c-0.3,0-0.7-0.1-1-0.1c-0.5,0-1-0.1-1.5-0.1c-0.3,0-0.7-0.1-1-0.1c-0.5-0.1-1-0.1-1.4-0.2
		c-0.3,0-0.7-0.1-1-0.1c-0.5-0.1-0.9-0.1-1.4-0.2c-0.3-0.1-0.7-0.1-1-0.2c-0.5-0.1-0.9-0.2-1.4-0.2c-0.3-0.1-0.7-0.1-1-0.2
		c-0.5-0.1-0.9-0.2-1.4-0.3c-0.3-0.1-0.7-0.1-1-0.2c-0.5-0.1-0.9-0.2-1.4-0.3c-0.3-0.1-0.6-0.2-1-0.2c-0.5-0.1-0.9-0.2-1.4-0.4
		c-0.3-0.1-0.6-0.2-0.9-0.3c-0.5-0.1-1-0.3-1.4-0.4c-0.3-0.1-0.6-0.2-0.9-0.3c-0.5-0.1-1-0.3-1.5-0.5c-0.3-0.1-0.6-0.2-0.8-0.3
		c-0.5-0.2-1-0.3-1.5-0.5c-0.3-0.1-0.5-0.2-0.8-0.3c-0.5-0.2-1-0.4-1.5-0.6c-0.2-0.1-0.5-0.2-0.7-0.3c-0.5-0.2-1-0.4-1.5-0.6
		c-0.2-0.1-0.4-0.2-0.7-0.3c-0.5-0.2-1.1-0.5-1.6-0.7c-0.2-0.1-0.4-0.2-0.6-0.3c-0.6-0.2-1.1-0.5-1.7-0.8c-0.2-0.1-0.3-0.2-0.5-0.2
		c-0.6-0.3-1.2-0.6-1.7-0.8c-0.1-0.1-0.3-0.1-0.4-0.2c-0.6-0.3-1.2-0.6-1.8-1c-0.1,0-0.2-0.1-0.3-0.1c-0.7-0.4-1.3-0.7-2-1.1
		c0,0-0.1,0-0.1,0c-8.4-4.8-16-10.8-22.6-17.8c0,0,0,0,0,0c-30.6,19.5-61.9,34.6-97.9,35.7v0.2h-79.2v-0.2c-79.7,0-168.5,0-168.5,0
		v96.7h965V283.6C1234.4,283.6,1218.9,283.6,1185.3,283.6z"/>
	<path class="st20" d="M293,430c0,9.4-7.6,17-17,17s-17-7.6-17-17s7.6-17,17-17S293,420.6,293,430z M1142,200c-9.4,0-17,7.6-17,17
		s7.6,17,17,17s17-7.6,17-17S1151.4,200,1142,200z M1240,272c-6.6,0-12,5.4-12,12c0,6.6,5.4,12,12,12s12-5.4,12-12
		C1252,277.4,1246.6,272,1240,272z"/>
	<path class="st21" d="M1090,569h2v6h-2V569z M1090,506.5h2V494h-2V506.5z M1090,531.5h2V519h-2V531.5z M1090,481.5h2V469h-2V481.5z
		 M1090,556.5h2V544h-2V556.5z M1090,406.5h2V394h-2V406.5z M1090,381.5h2V369h-2V381.5z M1090,456.5h2V444h-2V456.5z M1090,356.5h2
		V344h-2V356.5z M1090,431.5h2V419h-2V431.5z M1090,325.5v6h2v-6H1090z M938,575h2v-6h-2V575z M938,507.7h2v-12.3h-2V507.7z
		 M938,483.1h2v-12.3h-2V483.1z M938,532.2h2v-12.3h-2V532.2z M938,556.7h2v-12.3h-2V556.7z M938,434.1h2v-12.3h-2V434.1z M938,385
		h2v-12.3h-2V385z M938,409.6h2v-12.3h-2V409.6z M938,458.6h2v-12.3h-2V458.6z M938,360.5h2v-6h-2V360.5z M786,575h2v-6h-2V575z
		 M786,434.8h2v-12.2h-2V434.8z M786,459.2h2V447h-2V459.2z M786,483.6h2v-12.2h-2V483.6z M786,556.8h2v-12.2h-2V556.8z M786,532.4
		h2v-12.2h-2V532.4z M786,508h2v-12.2h-2V508z M786,361.5h2v-12.2h-2V361.5z M786,312.7h2v-12.2h-2V312.7z M786,288.3h2v-12.2h-2
		V288.3z M786,410.4h2v-12.2h-2V410.4z M786,263.9h2v-12.2h-2V263.9z M786,385.9h2v-12.2h-2V385.9z M786,337.1h2v-12.2h-2V337.1z
		 M786,239.5h2v-6h-2V239.5z M634,575h2v-6h-2V575z M634,557.6h2v-11.4h-2V557.6z M634,534.8h2v-11.4h-2V534.8z M634,512.1h2v-11.4
		h-2V512.1z M634,489.3h2v-11.4h-2V489.3z M634,466.5h2v-11.4h-2V466.5z M634,443.7h2v-6h-2V443.7z M482,575h2v-6h-2V575z
		 M482,557.6h2v-11.4h-2V557.6z M482,511.9h2v-11.4h-2V511.9z M482,534.7h2v-11.4h-2V534.7z M482,489h2v-6h-2V489z M330,575h2v-6h-2
		V575z M330,556.5h2V544h-2V556.5z M330,506.5h2V494h-2V506.5z M330,531.5h2V519h-2V531.5z M330,456.5h2V444h-2V456.5z M330,481.5h2
		V469h-2V481.5z M330,431.5h2v-6h-2V431.5z"/>
	<polygon class="st12" points="1241,565 1241,575 258,575 258,584 1241,584 1242,584 1260,584 1260,565 	"/>
</g>
</svg>
