<?xml version="1.0" encoding="UTF-8"?>
<svg width="88px" height="88px" viewBox="0 0 88 88" version="1.1" xmlns="http://www.w3.org/2000/svg" xmlns:xlink="http://www.w3.org/1999/xlink">
    <!-- Generator: Sketch 52.6 (67491) - http://www.bohemiancoding.com/sketch -->
    <title>保险解析icon小-灰 copy 2</title>
    <desc>Created with Sketch.</desc>
    <g id="保险解析icon小-灰-copy-2" stroke="none" stroke-width="1" fill="none" fill-rule="evenodd">
        <polygon id="Rectangle-3" fill="#93A2A7" transform="translate(27.500000, 38.500000) rotate(-180.000000) translate(-27.500000, -38.500000) " points="0 0 44 0 55 11 55 77 0 77"></polygon>
        <polygon id="Rectangle-Copy-4" fill="#A8B6BA" fill-rule="nonzero" points="6 11 49 11 49 50 27.397972 64 6 50"></polygon>
        <polygon id="Path-4" fill="#B3C2C7" transform="translate(5.500000, 71.486940) rotate(-180.000000) translate(-5.500000, -71.486940) " points="3.55271368e-15 65.9738805 11 76.9738805 3.55271368e-15 77"></polygon>
        <path d="M18.8297872,18 L21.9893617,19.5048026 C21.287234,21.7780149 20.3617021,23.9551761 19.212766,26.036286 L19.212766,48 L15.8297872,48 L15.8297872,31.2230523 C14.9680851,32.3116329 14.0425532,33.4002134 13.0851064,34.4247599 L12,30.8388474 C15.0638298,27.2209178 17.3617021,22.9306297 18.8297872,18 Z M23.1382979,19.6008538 L38.712766,19.6008538 L38.712766,30.4226254 L32.5531915,30.4226254 L32.5531915,32.9519744 L41.3617021,32.9519744 L41.3617021,36.2177161 L35.4574468,36.2177161 C37.0212766,38.9711846 39.1914894,41.3724653 42,43.4535752 L39.8297872,46.3671291 C36.9893617,43.6456777 34.6276596,40.2518677 32.7765957,36.2177161 L32.5531915,36.2177161 L32.5531915,47.9679829 L29.2340426,47.9679829 L29.2340426,36.2177161 L28.9787234,36.2177161 C27.0638298,40.5720384 24.6382979,43.9658485 21.7659574,46.3991462 L19.8829787,43.3895411 C22.5,41.5325507 24.6382979,39.1632871 26.3297872,36.2177161 L20.7446809,36.2177161 L20.7446809,32.9519744 L29.2340426,32.9519744 L29.2340426,30.4226254 L23.1382979,30.4226254 L23.1382979,19.6008538 Z M35.4574468,27.2209178 L35.4574468,22.8025614 L26.393617,22.8025614 L26.393617,27.2209178 L35.4574468,27.2209178 Z" id="保" fill="#93A2A7"></path>
        <rect id="Rectangle-3-Copy" fill="#C9D4D8" x="33" y="11" width="55" height="77"></rect>
        <rect id="Rectangle-4" fill="#FFFFFF" x="44" y="22" width="33" height="11"></rect>
        <rect id="Rectangle-4-Copy" fill="#FFFFFF" x="44" y="44" width="33" height="11"></rect>
        <rect id="Rectangle-4-Copy-2" fill="#FFFFFF" x="44" y="66" width="22" height="11"></rect>
    </g>
</svg>