<?xml version="1.0" encoding="UTF-8"?>
<svg width="1024px" height="1024px" viewBox="0 0 1024 1024" version="1.1" xmlns="http://www.w3.org/2000/svg" xmlns:xlink="http://www.w3.org/1999/xlink">
    <!-- Generator: Sketch 52.4 (67378) - http://www.bohemiancoding.com/sketch -->
    <title>doc</title>
    <desc>Created with Sketch.</desc>
    <g id="doc" stroke="none" stroke-width="1" fill="none" fill-rule="evenodd">
        <g id="DOC图标-(1)" fill="#5491F2" fill-rule="nonzero">
            <path d="M192,384 L832,384 C843.315904,384 854.168337,388.495225 862.16989,396.496777 C870.171442,404.49833 874.666667,415.350763 874.666667,426.666667 L874.666667,789.333333 C874.666667,812.897483 855.56415,832 832,832 L192,832 L192,938.666667 C192,944.324619 194.247613,949.750835 198.248389,953.751611 C202.249165,957.752387 207.675381,960 213.333333,960 L938.666667,960 C950.448741,960 960,950.448741 960,938.666667 L960,308.821333 L949.909333,298.666667 L823.381333,298.666667 C769.230918,298.666667 725.333333,254.769082 725.333333,200.618667 L725.333333,72.661333 L716.714667,64 L213.333333,64 C207.675381,64 202.249165,66.2476126 198.248389,70.2483886 C194.247613,74.2491646 192,79.6753813 192,85.333333 L192,384 Z M128,832 L42.666667,832 C19.1025175,832 2.88577603e-15,812.897483 0,789.333333 L0,426.666667 C-2.14868814e-14,415.350763 4.49522522,404.49833 12.4967774,396.496777 C20.4983296,388.495225 31.3507633,384 42.666667,384 L128,384 L128,85.333333 C128,38.2050345 166.205035,-2.88577599e-15 213.333333,0 L743.36,0 L1024,282.453333 L1024,938.666667 C1024,985.794965 985.794965,1024 938.666667,1024 L213.333333,1024 C166.205035,1024 128,985.794965 128,938.666667 L128,832 Z M65.92,472.490667 L65.92,746.666667 L157.269333,746.666667 C197.866666,746.666667 228.309333,734.378667 249.322667,709.802667 C269.269334,686.378667 279.424,652.970667 279.424,609.578667 C279.424,565.802667 269.269333,532.394667 249.322667,509.354667 C228.330667,484.778667 197.866667,472.490667 157.269333,472.490667 L65.92,472.490667 Z M106.88,510.890667 L149.546667,510.890667 C180.693334,510.890667 203.456,518.570667 217.813333,534.314667 C231.808,549.674667 238.805333,575.018667 238.805333,609.578667 C238.805333,643.370667 231.808,668.330667 217.792,684.458667 C203.456,700.202667 180.693333,708.266667 149.546667,708.266667 L106.88,708.266667 L106.88,510.890667 Z M428.885333,467.114667 C390.378666,467.114667 360.277333,480.554667 338.581333,508.202667 C317.568,534.314667 307.434666,568.106667 307.434667,609.962667 C307.434667,651.434667 317.568,685.226667 338.581333,711.338667 C360.277333,738.218667 390.378666,752.042667 428.885333,752.042667 C467.029333,752.042667 497.130666,738.602667 519.189333,711.722667 C540.181333,685.994667 550.677333,652.202667 550.677333,609.962667 C550.677333,567.722667 540.181333,533.546667 519.189333,507.818667 C497.130666,480.554667 467.029333,467.114667 428.885333,467.114667 Z M428.885333,506.666667 C454.784,506.666667 474.730666,515.498667 488.725333,533.930667 C502.378666,552.362667 509.376,577.706667 509.376,609.962667 C509.376,642.218667 502.378667,667.178667 488.725333,685.226667 C474.730666,703.274667 454.784,712.490667 428.885333,712.490667 C402.986666,712.490667 382.677333,702.890667 368.682667,684.074667 C355.029334,665.642667 348.373334,641.066667 348.373333,609.962667 C348.373333,578.474667 355.029333,553.898667 368.682667,535.466667 C383.018667,516.266667 402.986667,506.666667 428.885333,506.666667 Z M697.685333,467.114667 C657.792,467.114667 627.328,481.322667 606.336,510.506667 C587.776,535.850667 578.688,569.258667 578.688,609.962667 C578.688,651.434667 587.434667,684.458667 605.290667,709.034667 C625.578667,737.450667 656.725334,752.042667 698.389333,752.042667 C725.333333,752.042667 748.437333,743.594667 767.68,726.698667 C788.330667,708.650667 801.28,683.690667 806.890667,651.434667 L766.997333,651.434667 C762.090666,672.170667 753.685333,687.914667 741.781333,698.282667 C730.581333,707.498667 715.882666,712.490667 698.048,712.490667 C670.741333,712.490667 650.432,702.890667 637.482667,684.458667 C625.578667,667.178667 619.626667,642.218667 619.626667,609.962667 C619.626667,578.474667 625.6,553.898667 637.845333,536.234667 C651.136,516.266667 670.741333,506.666667 696.981333,506.666667 C714.474666,506.666667 728.832,510.506667 740.032,518.954667 C751.594667,527.402667 759.296,540.458667 763.498667,558.506667 L803.392,558.506667 C799.552,530.858667 788.672,508.586667 770.496,492.458667 C751.594667,475.562667 727.082667,467.114667 697.685333,467.114667 Z" id="Shape"></path>
        </g>
    </g>
</svg>