<svg xmlns="http://www.w3.org/2000/svg" viewBox="0 0 66.29 89.51"><defs><style>.cls-1{fill:#2a2c5c;}.cls-2{fill:#73c3fa;}.cls-3{fill:#fff;}.cls-4{fill:#2081c9;}.cls-5{fill:#9df2f7;}.cls-6{fill:#d5fdff;}.cls-7{fill:#8de6eb;}.cls-8{fill:#51aae6;}.cls-9{fill:#2b50bb;}</style></defs><title>资源 1</title><g id="图层_2" data-name="图层 2"><g id="图层_1-2" data-name="图层 1"><path class="cls-1" d="M63.07,85.36H61v-1h2Zm-5,0h-2v-1h2Zm-5,0h-2v-1h2Zm-5,0h-2v-1h2Zm-5,0h-2v-1h2Zm-5,0h-2v-1h2Zm-5,0h-2v-1h2Zm-5,0h-2v-1h2Zm-5,0h-2v-1h2Zm-5,0h-2v-1h2Zm-5,0h-2v-1h2ZM8,84.61a3.49,3.49,0,0,1-1.24-1.92l1-.24a2.48,2.48,0,0,0,.89,1.37Zm58-.88-.84-.54a2.47,2.47,0,0,0,.39-1.35v-.28h1v.28A3.48,3.48,0,0,1,66,83.73ZM7.67,79.59h-1v-2h1Zm58.87-1h-1v-2h1Zm-58.87-4h-1v-2h1Zm58.87-1h-1v-2h1Zm-58.87-4h-1v-2h1Zm58.87-1h-1v-2h1Zm-58.87-4h-1v-2h1Zm58.87-1h-1v-2h1Zm-58.87-4h-1v-2h1Zm58.87-1h-1v-2h1Zm-58.87-4h-1v-2h1Zm58.87-1h-1v-2h1Zm-58.87-4h-1v-2h1Zm58.87-1h-1v-2h1Zm-58.87-4h-1v-2h1Zm58.87-1h-1v-2h1Zm-58.87-4h-1v-2h1Zm58.87-1h-1v-2h1Zm-58.87-4h-1v-2h1Zm58.87-1h-1v-2h1Zm-58.87-4h-1v-2h1Zm58.87-1h-1v-2h1Zm-58.87-4h-1v-2h1Zm58.87-1h-1v-2h1Zm-58.87-4h-1v-2h1Zm58.87-1h-1v-2h1Zm-58.87-4h-1v-2h1Zm58.87-1h-1v-2h1Zm-58.87-4h-1V9.52a3.58,3.58,0,0,1,.56-1.91l.84.54a2.55,2.55,0,0,0-.4,1.37Zm57.8-.89a2.56,2.56,0,0,0-.9-1.36l.61-.79a3.48,3.48,0,0,1,1.25,1.91ZM62,7H60V6h2ZM57,7H55V6h2Zm-5,0h-2V6h2Zm-5,0h-2V6h2Zm-5,0h-2V6h2Zm-5,0h-2V6h2Zm-5,0h-2V6h2Zm-5,0h-2V6h2Zm-5,0h-2V6h2Zm-5,0h-2V6h2Zm-5,0h-2l0-1h2Z" transform="translate(-0.25 -0.25)"/><path class="cls-2" d="M60.49,21.66v54a3,3,0,0,1-3,3H55.12l-1.28-2.22,4.39-2.33a.8.8,0,0,0,.13-1.33l-.84-.67,1.78-1a.8.8,0,0,0,.12-1.33L42.22,56a.8.8,0,0,0-1.3.63v2.19a.8.8,0,0,0-1.07.75V78.61H3.25a3,3,0,0,1-3-3V3.25a3,3,0,0,1,3-3H39.08V18.64a3,3,0,0,0,3,3Z" transform="translate(-0.25 -0.25)"/><path class="cls-3" d="M59.42,69.78a.8.8,0,0,1-.12,1.33l-1.78,1L41.15,58.9a.76.76,0,0,0-.23-.13V56.58a.8.8,0,0,1,1.3-.63Z" transform="translate(-0.25 -0.25)"/><path class="cls-4" d="M58.36,72.73a.8.8,0,0,1-.13,1.33l-4.39,2.33-.64-1.1a.8.8,0,0,1,.32-1.11l4-2.12Z" transform="translate(-0.25 -0.25)"/><path class="cls-5" d="M58.16,83.88a.79.79,0,0,1-.3,1.09l-1.38.8-4.14-7.16h2.78Z" transform="translate(-0.25 -0.25)"/><path class="cls-6" d="M41.15,58.9,57.52,72.06l-4,2.12a.8.8,0,0,0-.32,1.11l.64,1.1-1.39.74a.81.81,0,0,0-.32,1.11l.21.37H49.27l-.57-1a.8.8,0,0,0-1.07-.31l-2.45,1.3H40.92V58.77A.76.76,0,0,1,41.15,58.9Z" transform="translate(-0.25 -0.25)"/><path class="cls-1" d="M57.09,86.83a.8.8,0,0,1-.29,1.09l-3,1.73a.8.8,0,0,1-1.1-.3l-5.07-8.79a.81.81,0,0,0-1.07-.3L41,83.2a.8.8,0,0,1-1.18-.7V78.61h1.07v.94a.79.79,0,0,0,1.17.7l3.09-1.64h4.09l4.51,7.8a.8.8,0,0,0,1.09.29l1.61-.93Z" transform="translate(-0.25 -0.25)"/><path class="cls-7" d="M52.34,78.61l4.14,7.16-1.61.93a.8.8,0,0,1-1.09-.29l-4.51-7.8Z" transform="translate(-0.25 -0.25)"/><path class="cls-6" d="M55.12,78.61H52.34l-.21-.37a.81.81,0,0,1,.32-1.11l1.39-.74Z" transform="translate(-0.25 -0.25)"/><path class="cls-4" d="M48.7,77.62l.57,1H45.18l2.45-1.3A.8.8,0,0,1,48.7,77.62Z" transform="translate(-0.25 -0.25)"/><path class="cls-7" d="M45.18,78.61l-3.09,1.64a.79.79,0,0,1-1.17-.7v-.94Z" transform="translate(-0.25 -0.25)"/><path class="cls-4" d="M40.92,58.77V78.61H39.85V59.52A.8.8,0,0,1,40.92,58.77Z" transform="translate(-0.25 -0.25)"/><path class="cls-8" d="M39.08.25V18.63a3,3,0,0,0,3,3H60.49Z" transform="translate(-0.25 -0.25)"/><path class="cls-9" d="M42.82,45.69a36.3,36.3,0,0,0-5.5.33,13.84,13.84,0,0,1-5.79-7.29c0-.13.09-.39.12-.49l.13-.57a26.27,26.27,0,0,0,.81-5,11.93,11.93,0,0,0-.2-3.1,3.78,3.78,0,0,0-3.66-3.34,3.53,3.53,0,0,0-3.68,2.37c-.66,2.39-.28,5.54,1.11,10.92a129,129,0,0,1-5.67,11.91,30.73,30.73,0,0,0-5.09,3.15,8.12,8.12,0,0,0-3.25,4.47,3.38,3.38,0,0,0,.6,2.43,3.31,3.31,0,0,0,2.53,1.52c2.67.21,6-2.55,9.59-8.78l1.22-.41,1.32-.45,2-.68a46.2,46.2,0,0,1,6.34-1.68,21.73,21.73,0,0,0,9.09,2.75,3.7,3.7,0,0,0,3.83-2.66,4.15,4.15,0,0,0-.83-4c-1-.94-2.69-1.38-5.06-1.46ZM15.35,59.92v-.08A6.2,6.2,0,0,1,16,58.65a15.53,15.53,0,0,1,1.94-2.31c.43-.44.88-.86,1.41-1.34l1-.92,1.24-1.15-.9,1.43A25.77,25.77,0,0,1,17,59.13,8,8,0,0,1,16,60l-.29.16-.13,0a.17.17,0,0,1-.12,0,.22.22,0,0,1-.14-.21Zm14-24.18-.25.44-.16-.48a18.5,18.5,0,0,1-.66-4.21c-.08-1.69.05-2.7.58-2.7.75,0,1.09,1.2,1.12,3A9.43,9.43,0,0,1,29.3,35.74Zm-.64,6.47.17-.44.23.42a17.61,17.61,0,0,0,4.82,5.68l.4.3-.49.1A32.36,32.36,0,0,0,28,50.13c.25-.09-2.39,1-3.06,1.24l-.58.22.31-.54a62,62,0,0,0,4-8.84Zm17.46,8.45c-.87.35-2.75,0-6-1.37l-.83-.36.9-.06a14.44,14.44,0,0,1,5.48.34,1.58,1.58,0,0,1,.89.61.51.51,0,0,1-.15.7.66.66,0,0,1-.24.14Z" transform="translate(-0.25 -0.25)"/></g></g></svg>