<?xml version="1.0" encoding="utf-8"?>
<!-- Generator: Adobe Illustrator 22.1.0, SVG Export Plug-In . SVG Version: 6.00 Build 0)  -->
<svg version="1.1" id="图层_1" xmlns="http://www.w3.org/2000/svg" xmlns:xlink="http://www.w3.org/1999/xlink" x="0px" y="0px"
	 viewBox="0 0 1449.3 808.7" style="enable-background:new 0 0 1449.3 808.7;" xml:space="preserve">
<style type="text/css">
	.st0{clip-path:url(#SVGID_2_);}
	.st1{fill:#FFFFFF;}
	.st2{fill:#E7EDFF;}
	.st3{fill:#A8BEFF;}
	.st4{opacity:0.1;fill:none;stroke:#B0C3FF;stroke-miterlimit:10;enable-background:new    ;}
	.st5{opacity:0.2;fill:#B0C3FF;enable-background:new    ;}
	.st6{fill:none;stroke:#FFFFFF;stroke-miterlimit:10;}
	.st7{fill:#8AA9FF;}
	.st8{fill:#2A4EB9;}
	.st9{opacity:0.4;}
	.st10{fill:none;stroke:#B0C3FF;stroke-miterlimit:10;}
	.st11{opacity:0.1;}
	.st12{fill:#193EA9;}
</style>
<title>资源 3</title>
<g>
	<g id="图层_2_1_">
		<g id="图层_1-2">
			<g>
				<defs>
					<rect id="SVGID_1_" width="1449.3" height="808.7"/>
				</defs>
				<clipPath id="SVGID_2_">
					<use xlink:href="#SVGID_1_"  style="overflow:visible;"/>
				</clipPath>
				<g class="st0">
					<path class="st1" d="M964.7,414.3l-20,7.5c-1.3,0.4-2.7,0.3-4-0.1c-1.2-0.5-1.3-1.1-0.4-1.5l25.9-9.8l-2.2-0.9
						c-2.4-0.9-5-1-7.5-0.2l-22.3,8.4c-4,1.5-3.6,4.3,0.9,6.1s11.6,2,15.8,0.5l20-7.5c1.3-0.4,2.7-0.4,4,0.1
						c1.2,0.5,1.3,1.1,0.4,1.5l-25.9,9.8l2.2,0.9c2.4,0.9,5,1,7.5,0.2l22.3-8.4c4.1-1.5,3.7-4.2-0.9-6.1
						C976,412.9,968.8,412.7,964.7,414.3L964.7,414.3z"/>
					<path class="st1" d="M997.3,393.8l10.1,4.2l-21.8,8.2c-0.4,0.2-0.8,0.3-1.2,0.5l-10.2-4.2l-2,0.8c-2,0.8-1.8,2.1,0.3,3
						l22.7,9.4l5.6-2.1l-10-4.1c-0.1,0,0.2-0.3,1-0.6l21.8-8.2l10.4,4.3l2-0.8c2-0.8,1.8-2.1-0.3-3l-22.6-9.3L997.3,393.8z"/>
					<path class="st1" d="M1097.7,370.3l-42.1,1.6h-0.2l-1,0.4c-2,0.8-1.8,2.1,0.3,3l22.7,9.4l5.6-2.1l-18.4-7.6l42.5-1.6h0.2
						l0.9-0.3c2-0.8,1.8-2.1-0.3-3l-22.7-9.4l-5.6,2.1L1097.7,370.3z"/>
					<path class="st1" d="M1139.4,354.5l-42.1,1.6h-0.2l-1,0.4c-2,0.8-1.8,2.1,0.3,3l22.6,9.4l5.6-2.1l-18.4-7.6l42.4-1.6h0.2
						l0.9-0.3c2-0.8,1.8-2.1-0.3-3l-22.7-9.4l-5.6,2.1L1139.4,354.5z"/>
					<path class="st1" d="M1222.8,323l-42.1,1.6h-0.2l-1,0.4c-2,0.8-1.8,2.1,0.3,3l22.7,9.4l5.6-2.1l-18.4-7.6l42.5-1.6h0.2l0.9-0.3
						c2-0.8,1.8-2.1-0.3-3l-22.7-9.4l-5.6,2.1L1222.8,323z"/>
					<polygon class="st1" points="1243.4,321.7 1247.4,320.2 1242.7,318.2 1238.7,319.8 					"/>
					<path class="st1" d="M1275.6,291.6l22.7,9.4l2-0.8c2-0.8,1.8-2.1-0.3-3l-22.7-9.4l-2,0.8
						C1273.3,289.4,1273.5,290.7,1275.6,291.6z"/>
					<path class="st1" d="M1159.4,332.5l-16.2,6.1c-5,1.9-4.7,5.2,0.8,7.5l6.8,2.8c5.4,2.2,13.9,2.5,19,0.6l16.2-6.1
						c5-1.9,4.7-5.3-0.8-7.5l-6.8-2.8C1172.9,330.9,1164.4,330.6,1159.4,332.5z M1179.6,338.1c2.1,0.9,2.2,2.1,0.3,2.9l-16.2,6.1
						c-2.4,0.7-4.9,0.6-7.2-0.2l-6.8-2.8c-2.1-0.9-2.2-2.1-0.3-2.9l16.2-6.1c2.4-0.7,4.9-0.6,7.2,0.2L1179.6,338.1z"/>
					<path class="st1" d="M1050.1,384.4c-1.2,0-2.4,0.1-3.6,0.5l-11,4.2l-1.7-3.1l3.8,0.4l6.8-2.6l-13.1-1.4
						c-3.2-0.3-6.1,0.4-6.6,1.6c-0.1,0.3-0.1,0.6,0.1,0.8l8.3,15.1l0.1,0.2l0.9,0.4h1l5.4-2l-3-5.4l13.9-5.2l13.5,1.4l6-2.2
						l-1.4-0.6l-19.4-2L1050.1,384.4z"/>
					<path class="st1" d="M1269.6,301.9c-1.2,0-2.4,0.1-3.6,0.5l-11,4.2l-1.7-3.1l3.8,0.4l6.8-2.6l-13.1-1.3
						c-3.2-0.3-6.1,0.4-6.6,1.6c-0.1,0.3-0.1,0.6,0.1,0.8l8.3,15.1l0.1,0.2l0.9,0.4h1l5.4-2l-3-5.4l13.9-5.2l13.5,1.4l6-2.3
						l-1.4-0.6l-19.4-2L1269.6,301.9z"/>
					<polygon class="st1" points="0,809 1452.7,263.2 1452.7,809 					"/>
					<polygon class="st2" points="639.1,616.6 282.5,750.2 713.8,950.3 1070.5,816.7 					"/>
					<polygon class="st3" points="785.9,811.7 744.9,795.1 532.8,765 532.5,764.8 470.5,724.7 321.6,736.5 321.4,733.5 471.3,721.6 
						471.7,721.9 533.8,762.1 745.7,792.2 745.9,792.2 787.1,808.9 					"/>
					<g>
						<polygon class="st2" points="1495.1,295.9 1423.8,322.6 1481.4,349.3 1552.7,322.6 						"/>
						<polygon class="st2" points="1352.5,349.3 1281.1,376.1 1453.9,456.2 1525.3,429.5 						"/>
						<polygon class="st2" points="1210.3,402.8 1139,429.5 1578.1,633.5 1649.4,606.7 						"/>
						<polygon class="st2" points="924.5,509.7 853.1,536.4 1255.7,723.2 1327.1,696.4 						"/>
						<polygon class="st2" points="781.8,563.1 710.5,589.8 1285.8,856.8 1357.2,830 						"/>
						<polygon class="st2" points="1067.1,456.2 995.7,482.9 1169,563.5 1240.3,536.7 						"/>
						<polygon class="st2" points="1356.4,710.1 1285.1,736.8 1486.1,830 1557.4,803.3 						"/>
					</g>
					<polygon class="st4" points="999.2,492.3 1056.8,519 1128.2,492.3 1070.6,465.6 					"/>
					<polygon class="st4" points="1056.8,519 1114.4,545.7 1185.8,519 1128.2,492.3 					"/>
					<polygon class="st4" points="1114.4,545.7 1172,572.5 1243.3,545.7 1185.8,519 					"/>
					<polygon class="st4" points="856.1,545.4 913.7,572.1 985.1,545.4 927.5,518.7 					"/>
					<polygon class="st4" points="913.7,572.1 971.3,598.8 1042.7,572.1 985.1,545.4 					"/>
					<polygon class="st4" points="971.3,598.8 1028.9,625.6 1100.3,598.8 1042.7,572.1 					"/>
					<polygon class="st4" points="1028.9,625.6 1086.5,652.3 1157.9,625.6 1100.3,598.8 					"/>
					<polygon class="st4" points="1144.1,679 1201.7,705.7 1273.1,679 1215.5,652.3 					"/>
					<polygon class="st5" points="1090.5,662.3 1148.1,689 1219.5,662.3 1161.9,635.6 					"/>
					<polygon class="st4" points="1201.7,705.7 1259.3,732.4 1330.7,705.7 1273.1,679 					"/>
					<polygon class="st4" points="1288.5,746 1346.1,772.7 1417.5,746 1359.9,719.3 					"/>
					<polygon class="st4" points="1346.1,772.7 1403.7,799.4 1475.1,772.7 1417.5,746 					"/>
					<polygon class="st4" points="1403.7,799.4 1461.3,826.2 1532.7,799.4 1475.1,772.7 					"/>
					<polygon class="st4" points="1141.9,438.8 1199.5,465.6 1270.8,438.8 1213.2,412.1 					"/>
					<polygon class="st4" points="1284.6,385.4 1342.2,412.1 1413.5,385.4 1355.9,358.7 					"/>
					<polygon class="st4" points="1427.6,332.1 1485.2,358.9 1556.5,332.1 1498.9,305.4 					"/>
					<polygon class="st4" points="1342.2,412.1 1399.8,438.8 1471.1,412.1 1413.5,385.4 					"/>
					<polygon class="st4" points="1399.8,438.8 1457.4,465.6 1528.7,438.8 1471.1,412.1 					"/>
					<polygon class="st4" points="1257.1,492.3 1314.7,519 1386,492.3 1328.4,465.6 					"/>
					<polygon class="st5" points="1203.5,475.6 1261.1,502.3 1332.4,475.6 1274.8,448.8 					"/>
					<polygon class="st4" points="1339,530.3 1396.6,557 1467.9,530.3 1410.3,503.6 					"/>
					<polygon class="st4" points="1396.6,557 1454.2,583.7 1525.5,557 1467.9,530.3 					"/>
					<polygon class="st4" points="713.4,598.8 771,625.5 842.3,598.8 784.7,572.1 					"/>
					<polygon class="st4" points="771,625.5 828.6,652.2 899.9,625.5 842.3,598.8 					"/>
					<polygon class="st4" points="828.6,652.2 886.2,679 957.5,652.2 899.9,625.5 					"/>
					<polygon class="st4" points="886.2,679 943.8,705.7 1015.1,679 957.5,652.2 					"/>
					<polygon class="st4" points="943.8,705.7 1001.4,732.4 1072.7,705.7 1015.1,679 					"/>
					<polygon class="st4" points="1001.4,732.4 1059,759.1 1130.3,732.4 1072.7,705.7 					"/>
					<polygon class="st4" points="1059,759.1 1116.6,785.8 1187.9,759.1 1130.3,732.4 					"/>
					<polygon class="st4" points="1116.6,785.8 1174.2,812.6 1245.5,785.8 1187.9,759.1 					"/>
					<polygon class="st4" points="1174.2,812.6 1231.8,839.3 1303.1,812.6 1245.5,785.8 					"/>
					<polygon class="st4" points="1231.8,839.3 1289.4,866 1360.7,839.3 1303.1,812.6 					"/>
					<polygon class="st4" points="1289.4,866 1347,892.7 1418.3,866 1360.7,839.3 					"/>
					<line class="st6" x1="307" y1="385.6" x2="307" y2="714.6"/>
					<line class="st6" x1="346.4" y1="403.9" x2="346.4" y2="732.9"/>
					<line class="st6" x1="385.8" y1="422.2" x2="385.8" y2="751.2"/>
					<line class="st6" x1="425.2" y1="440.5" x2="425.2" y2="769.4"/>
					<line class="st6" x1="464.6" y1="458.7" x2="464.6" y2="787.7"/>
					<line class="st6" x1="504" y1="477" x2="504" y2="806"/>
					<line class="st6" x1="543.4" y1="495.3" x2="543.4" y2="824.3"/>
					<line class="st6" x1="582.8" y1="513.6" x2="582.8" y2="842.5"/>
					<line class="st6" x1="622.2" y1="531.8" x2="622.2" y2="860.8"/>
					<line class="st6" x1="661.5" y1="550.1" x2="661.5" y2="879.1"/>
					<line class="st6" x1="700.9" y1="568.4" x2="700.9" y2="897.4"/>
					<line class="st6" x1="740.3" y1="586.7" x2="740.3" y2="915.6"/>
					<line class="st6" x1="307" y1="385.6" x2="740.3" y2="586.7"/>
					<line class="st6" x1="307" y1="432.6" x2="740.3" y2="633.7"/>
					<line class="st6" x1="307" y1="479.6" x2="740.3" y2="680.7"/>
					<line class="st6" x1="307" y1="526.6" x2="740.3" y2="727.7"/>
					<line class="st6" x1="307" y1="573.6" x2="740.3" y2="774.7"/>
					<line class="st6" x1="307" y1="620.6" x2="740.3" y2="821.6"/>
					<line class="st6" x1="307" y1="667.6" x2="740.3" y2="868.6"/>
					<line class="st6" x1="307" y1="714.6" x2="740.3" y2="915.6"/>
					<polygon class="st7" points="649.2,667.1 584.7,681 556.9,673.3 436.7,689.1 376.5,656.6 287.2,687.3 287.2,685.8 388.6,650.9 
						448.9,683.4 569.1,667.5 596.9,675.3 661.3,661.4 					"/>
					<polygon class="st8" points="436.6,689.6 436.5,689.5 376.4,657.2 287.3,687.8 287,686.9 376.5,656.1 376.7,656.2 436.8,688.6 
						556.9,672.8 584.7,680.5 649,666.6 649.3,667.6 584.7,681.5 556.8,673.8 					"/>
					<polygon class="st7" points="649.2,667.1 641.2,670.6 675.3,660.5 667.1,658.7 661.3,661.4 					"/>
					<polygon class="st8" points="675.3,661.3 675.3,660.5 641.2,670.6 641.2,671.5 					"/>
					<g class="st9">
						<polygon class="st10" points="995.7,453.3 1053.3,480 1124.7,453.3 1067.1,426.5 						"/>
						<polygon class="st10" points="1053.3,480 1110.9,506.7 1182.3,480 1124.7,453.3 						"/>
						<polygon class="st10" points="1110.9,506.7 1168.5,533.4 1239.8,506.7 1182.3,480 						"/>
						<polygon class="st10" points="852.6,506.4 910.2,533.1 981.6,506.4 924,479.6 						"/>
						<polygon class="st10" points="910.2,533.1 967.8,559.8 1039.2,533.1 981.6,506.4 						"/>
						<polygon class="st10" points="967.8,559.8 1025.4,586.5 1096.8,559.8 1039.2,533.1 						"/>
						<polygon class="st10" points="1025.4,586.5 1083,613.3 1154.4,586.5 1096.8,559.8 						"/>
						<polygon class="st10" points="1140.6,640 1198.2,666.7 1269.6,640 1212,613.3 						"/>
						<polygon class="st10" points="1198.2,666.7 1255.8,693.4 1327.2,666.7 1269.6,640 						"/>
						<polygon class="st10" points="1285,707 1342.6,733.7 1414,707 1356.4,680.2 						"/>
						<polygon class="st10" points="1342.6,733.7 1400.2,760.4 1471.6,733.7 1414,707 						"/>
						<polygon class="st10" points="1400.2,760.4 1457.8,787.1 1529.2,760.4 1471.6,733.7 						"/>
						<polygon class="st10" points="1138.4,399.8 1196,426.5 1267.3,399.8 1209.7,373.1 						"/>
						<polygon class="st10" points="1281.1,346.4 1338.7,373.1 1410,346.4 1352.4,319.7 						"/>
						<polygon class="st10" points="1424.1,293.1 1481.7,319.8 1553,293.1 1495.4,266.4 						"/>
						<polygon class="st10" points="1338.7,373.1 1396.3,399.8 1467.6,373.1 1410,346.4 						"/>
						<polygon class="st10" points="1396.3,399.8 1453.9,426.5 1525.2,399.8 1467.6,373.1 						"/>
						<polygon class="st10" points="1253.6,453.3 1311.2,480 1382.5,453.3 1324.9,426.5 						"/>
						<polygon class="st10" points="1335.5,491.3 1393.1,518 1464.4,491.3 1406.8,464.5 						"/>
						<polygon class="st10" points="1393.1,518 1450.7,544.7 1522,518 1464.4,491.3 						"/>
						<polygon class="st10" points="709.9,559.8 767.5,586.5 838.8,559.8 781.2,533 						"/>
						<polygon class="st10" points="767.5,586.5 825.1,613.2 896.4,586.5 838.8,559.8 						"/>
						<polygon class="st10" points="825.1,613.2 882.7,639.9 954,613.2 896.4,586.5 						"/>
						<polygon class="st10" points="882.7,639.9 940.3,666.7 1011.6,639.9 954,613.2 						"/>
						<polygon class="st10" points="940.3,666.7 997.9,693.4 1069.2,666.7 1011.6,639.9 						"/>
						<polygon class="st10" points="997.9,693.4 1055.5,720.1 1126.8,693.4 1069.2,666.7 						"/>
						<polygon class="st10" points="1055.5,720.1 1113.1,746.8 1184.4,720.1 1126.8,693.4 						"/>
						<polygon class="st10" points="1113.1,746.8 1170.7,773.5 1242,746.8 1184.4,720.1 						"/>
						<polygon class="st10" points="1170.7,773.5 1228.3,800.3 1299.6,773.5 1242,746.8 						"/>
						<polygon class="st10" points="1228.3,800.3 1285.9,827 1357.2,800.3 1299.6,773.5 						"/>
						<polygon class="st10" points="1285.9,827 1343.5,853.7 1414.8,827 1357.2,800.3 						"/>
					</g>
					<g>
						<polygon class="st2" points="207.2,780.7 135.9,807.4 193.5,834.1 264.8,807.4 						"/>
					</g>
					<g class="st11">
						<polygon class="st4" points="139.7,816.9 197.3,843.6 268.6,816.9 211,790.2 						"/>
					</g>
					<polygon class="st10" points="136.2,777.9 193.8,804.6 265.1,777.9 207.5,751.2 					"/>
					<polygon class="st7" points="1083,603.3 1140.6,630 1212,603.3 1154.4,576.5 					"/>
					<polygon class="st7" points="1196,416.5 1253.6,443.3 1324.9,416.5 1267.3,389.8 					"/>
					<path class="st12" d="M1258.4,103.4c-2.6,0-4.8-2.1-4.8-4.8c0-2.6,2.1-4.8,4.8-4.8c2.6,0,4.8,2.1,4.8,4.8
						C1263.2,101.3,1261,103.4,1258.4,103.4z M1258.4,94.8c-2.1,0-3.8,1.7-3.8,3.8c0,2.1,1.7,3.8,3.8,3.8c2.1,0,3.8-1.7,3.8-3.8
						C1262.2,96.5,1260.5,94.8,1258.4,94.8z"/>
					<path class="st12" d="M1215.1,196.7c-2.6,0-4.8-2.1-4.8-4.8c0-2.6,2.1-4.8,4.8-4.8c2.6,0,4.8,2.1,4.8,4.8
						C1219.9,194.6,1217.7,196.7,1215.1,196.7L1215.1,196.7z M1215.1,188.1c-2.1,0-3.8,1.7-3.8,3.8c0,2.1,1.7,3.8,3.8,3.8
						c2.1,0,3.8-1.7,3.8-3.8C1218.9,189.8,1217.2,188.1,1215.1,188.1L1215.1,188.1z"/>
					<rect x="1257.9" y="102.9" class="st12" width="1" height="309.2"/>
					<rect x="1214.6" y="196.4" class="st12" width="1" height="309.2"/>
					<path class="st12" d="M1150.6,600.6h-1v-50.8c0-9.8-5.7-18.6-14.6-22.7l-207.5-94.6c-4.1-1.9-8.9-0.1-10.7,4
						c-0.5,1.1-0.7,2.2-0.7,3.4v62.4h-1v-62.4c0-5,4.1-9.1,9.1-9.1c1.3,0,2.6,0.3,3.8,0.8l207.5,94.6c9.2,4.2,15.2,13.4,15.2,23.6
						L1150.6,600.6z"/>
					<path class="st12" d="M1579.6,444.7h-1v-50.8c0-9.8-5.7-18.6-14.6-22.7l-207.5-94.6c-4.1-1.8-8.9,0-10.7,4.1
						c-0.5,1.1-0.7,2.2-0.7,3.3v62.4h-1V284c0-5,4.1-9.1,9.1-9.1c1.3,0,2.6,0.3,3.8,0.8l207.5,94.6c9.2,4.2,15.2,13.5,15.2,23.6
						L1579.6,444.7z"/>
					<path class="st12" d="M1238.3,772.7h-1V638.8c0-13.5,8.7-25.4,21.6-29.3l83.1-25.8c4.9-1.5,7.7-6.8,6.2-11.7
						c-0.8-2.5-2.6-4.6-5-5.7L1054.6,433c-4.4-2-9.5-0.1-11.5,4.3c-0.5,1.1-0.8,2.4-0.8,3.6v43.2h-1v-43.2c0-5.4,4.3-9.7,9.7-9.7
						c1.4,0,2.8,0.3,4.1,0.9l288.6,133.2c5.2,2.4,7.5,8.6,5.1,13.8c-1.2,2.7-3.5,4.7-6.3,5.6l-83.1,25.8
						c-12.5,3.8-20.9,15.3-20.9,28.4V772.7z"/>
					<polygon class="st1" points="1222.6,39.6 1221.9,69.5 1294.4,104.1 1294.9,74.1 					"/>
					<polygon class="st1" points="1222.6,0 1221.9,29.9 1294.4,64.5 1294.9,34.5 					"/>
					<polygon class="st1" points="1115.4,66.2 1115.6,126.1 1171,151.8 1170.5,91.7 					"/>
					<polygon class="st6" points="1108.8,71.9 1109,131.8 1361.4,248.4 1360.9,188.4 					"/>
					<polygon class="st6" points="1390.5,127.9 1390.7,187.9 1643.1,304.5 1642.6,244.4 					"/>
					<polygon class="st12" points="1253.1,245.6 1263.6,250.5 1263.6,223 1253.2,217.4 					"/>
					<circle class="st12" cx="1150.1" cy="600.6" r="4.3"/>
					<circle class="st12" cx="1237.7" cy="773.5" r="4.3"/>
					<circle class="st12" cx="1258.4" cy="412.1" r="4.3"/>
					<circle class="st12" cx="915.5" cy="502.3" r="4.3"/>
					<circle class="st12" cx="1041.8" cy="484.3" r="4.3"/>
					<circle class="st12" cx="1344.5" cy="346.3" r="4.3"/>
					<polygon class="st12" points="1198.2,493.5 1198.1,503.6 1230.9,518.7 1230.9,508.5 					"/>
				</g>
			</g>
		</g>
	</g>
</g>
</svg>
