<svg xmlns="http://www.w3.org/2000/svg" xmlns:xlink="http://www.w3.org/1999/xlink" viewBox="0 0 500.2 444"><defs><style>.cls-1,.cls-2{fill:none;}.cls-2{clip-rule:evenodd;}.cls-10,.cls-3{isolation:isolate;}.cls-4{fill:#f7f8fa;}.cls-5{clip-path:url(#clip-path);}.cls-6{fill:#fff;}.cls-7{fill:#f0f1f3;}.cls-8{fill:#bdcce5;}.cls-9{fill:#e4eaf4;}.cls-10{opacity:0.1;}.cls-11{fill:#62d0ff;}.cls-12{fill:#2b50bb;}.cls-13{fill:#bbd2f9;}.cls-14{mix-blend-mode:multiply;}.cls-15{opacity:0.2;}.cls-16{clip-path:url(#clip-path-2);}.cls-17{clip-path:url(#clip-path-3);}.cls-18{clip-path:url(#clip-path-5);}.cls-19{clip-path:url(#clip-path-6);}.cls-20{clip-path:url(#clip-path-7);}.cls-21{fill:#050101;}.cls-22{clip-path:url(#clip-path-8);}.cls-23{clip-path:url(#clip-path-10);}.cls-24{clip-path:url(#clip-path-12);}.cls-25{clip-path:url(#clip-path-14);}.cls-26{clip-path:url(#clip-path-16);}.cls-27{clip-path:url(#clip-path-18);}.cls-28{clip-path:url(#clip-path-20);}.cls-29{clip-path:url(#clip-path-21);}.cls-30{clip-path:url(#clip-path-23);}.cls-31{clip-path:url(#clip-path-25);}.cls-32{clip-path:url(#clip-path-27);}.cls-33{clip-path:url(#clip-path-29);}.cls-34{fill:#000333;}.cls-35{fill:#bcbcbc;}.cls-36{clip-path:url(#clip-path-31);}.cls-37{clip-path:url(#clip-path-32);}.cls-38{clip-path:url(#clip-path-33);}.cls-39{clip-path:url(#clip-path-35);}.cls-40{clip-path:url(#clip-path-37);}.cls-41{clip-path:url(#clip-path-39);}.cls-42{clip-path:url(#clip-path-41);}.cls-43{clip-path:url(#clip-path-42);}.cls-44{clip-path:url(#clip-path-43);}.cls-45{clip-path:url(#clip-path-44);}.cls-46{clip-path:url(#clip-path-46);}</style><clipPath id="clip-path"><rect class="cls-1" x="101.78" y="222" width="398.42" height="222"/></clipPath><clipPath id="clip-path-2"><rect class="cls-1" x="32" y="399" width="104" height="13"/></clipPath><clipPath id="clip-path-3"><rect class="cls-1" x="32" y="399.1" width="11.89" height="12.63"/></clipPath><clipPath id="clip-path-5"><rect class="cls-1" x="31" y="399" width="13" height="13"/></clipPath><clipPath id="clip-path-6"><path class="cls-2" d="M43.7,409.73,41.54,405H36.65l1.3-2.76.89,1.93h2.25L39.16,400A1.5,1.5,0,0,0,38,399.1h0a1.5,1.5,0,0,0-1.21.93l-3.31,7.07h6.85l1.15,2.54h-7l.72-1.71H33l-.77,1.81a1.63,1.63,0,0,0,0,1.43,1.44,1.44,0,0,0,1.24.56h9.08a1.46,1.46,0,0,0,1.25-.59,1.56,1.56,0,0,0,0-1.41"/></clipPath><clipPath id="clip-path-7"><rect class="cls-1" x="32" y="399" width="12" height="13"/></clipPath><clipPath id="clip-path-8"><path class="cls-2" d="M58.27,405.31H53.73a.47.47,0,0,1-.45-.47.42.42,0,0,1,.38-.46h5.89v-.5a.84.84,0,0,0-.81-.88H53.66A1.76,1.76,0,0,0,52,404.84a1.82,1.82,0,0,0,1.73,1.85h4.54a.47.47,0,0,1,.45.47.42.42,0,0,1-.38.46H52.45v.5a.84.84,0,0,0,.81.88h5.08A1.74,1.74,0,0,0,60,407.16a1.82,1.82,0,0,0-1.73-1.85"/></clipPath><clipPath id="clip-path-10"><path class="cls-2" d="M68.69,403v2.28H63.62l-.31,0V403h-.48a.85.85,0,0,0-.83.88V409h1.31v-2.26s.12-.08.31-.08h5.07V409h.48a.85.85,0,0,0,.83-.88V403Z"/></clipPath><clipPath id="clip-path-12"><path class="cls-2" d="M88.69,407.13,83.11,403l0,0h-.25a.85.85,0,0,0-.83.88V409h1.31v-4.16L88.93,409l0,0h.21a.85.85,0,0,0,.83-.88V403H88.69Z"/></clipPath><clipPath id="clip-path-14"><path class="cls-2" d="M98.69,407.13,93.11,403l0,0h-.25a.85.85,0,0,0-.83.88V409h1.31v-4.16L98.93,409l0,0h.21a.85.85,0,0,0,.83-.88V403H98.69Z"/></clipPath><clipPath id="clip-path-16"><path class="cls-2" d="M117.69,407.13,112.11,403l0,0h-.25a.85.85,0,0,0-.83.88V409h1.31v-4.16l5.62,4.14,0,0h.21a.85.85,0,0,0,.83-.88V403h-1.31Z"/></clipPath><clipPath id="clip-path-18"><rect class="cls-1" x="32" y="399" width="104" height="12"/></clipPath><clipPath id="clip-path-20"><rect class="cls-1" x="72" y="403" width="64" height="6"/></clipPath><clipPath id="clip-path-21"><rect class="cls-1" x="122" y="408" width="1" height="1"/></clipPath><clipPath id="clip-path-23"><path class="cls-2" d="M135,403.88V409h.36c.35,0,.64-.39.64-.88V403h-.36c-.35,0-.64.39-.64.88"/></clipPath><clipPath id="clip-path-25"><path class="cls-2" d="M107.88,403h-3.77a2.18,2.18,0,0,0-2.11,2.23v1.54a2.18,2.18,0,0,0,2.11,2.23h3.77a2.18,2.18,0,0,0,2.12-2.23v-1.54A2.18,2.18,0,0,0,107.88,403Zm-4.57,2.23a.83.83,0,0,1,.8-.85h3.77a.83.83,0,0,1,.81.85v1.54a.83.83,0,0,1-.81.85h-3.77a.83.83,0,0,1-.8-.85Z"/></clipPath><clipPath id="clip-path-27"><path class="cls-2" d="M78.32,406a.84.84,0,0,0-.57-.24H75.33l.67-1.07.33.53h1.51l-1.13-1.81a.82.82,0,0,0-1.42,0L72,408.64l0,.05v.21l.13.1h1.18l1.16-1.86h3.06L78.69,409H80v-.31L78.33,406Z"/></clipPath><clipPath id="clip-path-29"><path class="cls-2" d="M130.32,406a.84.84,0,0,0-.57-.24h-2.42l.67-1.07.33.53h1.51l-1.13-1.81a.82.82,0,0,0-1.42,0L124,408.64l0,.05v.21l.13.1h1.18l1.16-1.86h3.06l1.16,1.86H132v-.31L130.33,406Z"/></clipPath><clipPath id="clip-path-31"><rect class="cls-1" x="151" y="158" width="52" height="50"/></clipPath><clipPath id="clip-path-32"><rect class="cls-1" x="-215" y="-186" width="1440" height="818"/></clipPath><clipPath id="clip-path-33"><rect class="cls-1" x="178" y="184" width="52" height="51"/></clipPath><clipPath id="clip-path-35"><path class="cls-2" d="M258.48,199.88h-5v9.7h-5.12V183.8h10.16c5.41,0,8.65,3.65,8.65,8s-3.24,8-8.65,8m-.25-11.59h-4.79v7.06h4.79c2.31,0,3.79-1.41,3.79-3.51a3.47,3.47,0,0,0-3.79-3.55"/></clipPath><clipPath id="clip-path-37"><path class="cls-2" d="M283.88,209.58l-5.11-10.28h-3.69v10.28H270V183.8h10.27c5.34,0,8.5,3.58,8.5,7.89a6.94,6.94,0,0,1-4.78,6.77l5.85,11.12Zm-4-21.29h-4.83v6.81h4.83a3.42,3.42,0,1,0,0-6.81Z"/></clipPath><clipPath id="clip-path-39"><rect class="cls-1" x="151" y="158" width="196.97" height="77"/></clipPath><clipPath id="clip-path-41"><rect class="cls-1" x="292" y="183" width="56" height="27"/></clipPath><clipPath id="clip-path-42"><rect class="cls-1" x="292.57" y="183.8" width="5.12" height="25.79"/></clipPath><clipPath id="clip-path-43"><rect class="cls-1" x="151" y="158" width="197" height="77"/></clipPath><clipPath id="clip-path-44"><polygon class="cls-2" points="320.95 209.58 320.95 194.55 315.95 204.33 312.49 204.33 307.44 194.55 307.44 209.58 302.32 209.58 302.32 183.8 307.37 183.8 314.22 197.74 321.03 183.8 326.07 183.8 326.07 209.58 320.95 209.58"/></clipPath><clipPath id="clip-path-46"><polygon class="cls-2" points="330.71 209.58 330.71 183.8 347.97 183.8 347.97 188.29 335.82 188.29 335.82 194.34 346.17 194.34 346.17 198.83 335.82 198.83 335.82 205.09 347.97 205.09 347.97 209.58 330.71 209.58"/></clipPath></defs><title>Group2x</title><g class="cls-3"><g id="图层_1" data-name="图层 1"><rect class="cls-4" width="500.2" height="444"/><g id="图层_2" data-name="图层 2"><g id="图层_1-2" data-name="图层 1-2"><g class="cls-5"><path class="cls-6" d="M366.51,335.69,361,337.75a1.88,1.88,0,0,1-1.1,0c-.32-.14-.35-.3-.11-.41l7.11-2.69-.6-.25a3.16,3.16,0,0,0-2.06-.05l-6.12,2.3c-1.1.41-1,1.18.25,1.68a7.14,7.14,0,0,0,4.33.13l5.49-2.05a1.73,1.73,0,0,1,1.1,0c.33.14.36.3.11.41l-7.11,2.69.61.25a3.13,3.13,0,0,0,2.05.06l6.12-2.31c1.13-.41,1-1.15-.24-1.67a6.75,6.75,0,0,0-4.34-.14Z"/><path class="cls-6" d="M375.46,330.06l2.77,1.16-6,2.25-.33.13-2.8-1.15-.55.22c-.55.22-.5.58.08.82l6.23,2.58,1.54-.57-2.75-1.13s.06-.08.28-.16l6-2.25,2.85,1.18.55-.22c.55-.22.5-.58-.08-.83l-6.2-2.55Z"/><path class="cls-6" d="M403,323.62l-11.56.43h-.05l-.27.11c-.55.22-.5.58.08.83l6.23,2.58L399,327l-5.05-2.09,11.67-.43h.05l.25-.09c.55-.22.49-.57-.08-.82L399.58,321l-1.54.58Z"/><path class="cls-6" d="M414.45,319.28l-11.55.44h-.06l-.27.11c-.55.22-.5.57.08.82l6.2,2.58,1.54-.58-5.05-2.08,11.64-.44h0l.25-.08c.55-.22.49-.58-.09-.83L411,316.64l-1.54.58Z"/><path class="cls-6" d="M437.34,310.64l-11.56.43h0l-.28.11c-.54.22-.49.58.09.83l6.23,2.58,1.53-.58-5.05-2.08,11.67-.44H440l.25-.09c.55-.22.49-.57-.08-.82L433.91,308l-1.54.58Z"/><polygon class="cls-6" points="442.99 310.28 444.09 309.87 442.8 309.32 441.7 309.76 442.99 310.28"/><path class="cls-6" d="M451.83,302l6.22,2.58.55-.22c.55-.22.5-.58-.08-.82L452.29,301l-.55.22C451.19,301.42,451.25,301.77,451.83,302Z"/><path class="cls-6" d="M419.94,313.24l-4.45,1.68c-1.37.52-1.29,1.42.22,2.05l1.87.77a8.25,8.25,0,0,0,5.21.17l4.45-1.68c1.37-.52,1.29-1.45-.22-2.05l-1.87-.77A8.26,8.26,0,0,0,419.94,313.24Zm5.54,1.54c.58.25.61.58.08.79l-4.44,1.68a3.26,3.26,0,0,1-2-.06l-1.86-.76c-.58-.25-.61-.58-.09-.8l4.45-1.67a3.19,3.19,0,0,1,2,.05Z"/><path class="cls-6" d="M390,327.48a3.08,3.08,0,0,0-1,.14l-3,1.15-.47-.85,1,.11,1.86-.71-3.59-.38c-.88-.09-1.68.11-1.81.43a.21.21,0,0,0,0,.22l2.28,4.15,0,.05.24.11h.28l1.48-.55-.82-1.48,3.81-1.43,3.71.39,1.64-.6-.38-.17-5.32-.55Z"/><path class="cls-6" d="M450.18,304.85a3.07,3.07,0,0,0-1,.13l-3,1.15-.46-.85,1,.11,1.86-.71-3.59-.36c-.88-.08-1.67.11-1.81.44a.19.19,0,0,0,0,.22l2.27,4.15,0,.05.25.11h.27l1.48-.55-.82-1.48,3.82-1.43,3.7.39,1.65-.63-.39-.17-5.32-.55Z"/><polygon class="cls-6" points="101.78 444 500.42 294.23 500.42 444 101.78 444"/><polygon class="cls-7" points="277.16 391.2 179.31 427.87 297.66 482.77 395.54 446.11 277.16 391.2"/><polygon class="cls-8" points="317.4 444.87 306.16 440.31 247.93 432.04 230.86 421.02 190.05 424.24 189.97 423.15 231.15 419.89 248.32 430.99 306.45 439.24 317.82 443.85 317.4 444.87"/><polygon class="cls-7" points="512.06 303.2 492.49 310.53 508.3 317.85 527.87 310.53 512.06 303.2"/><polygon class="cls-7" points="472.93 317.85 453.33 325.21 500.75 347.19 520.35 339.86 472.93 317.85"/><polygon class="cls-7" points="433.91 332.53 414.34 339.86 534.84 395.84 554.4 388.49 433.91 332.53"/><polygon class="cls-7" points="355.48 361.87 335.89 369.19 446.37 420.45 465.96 413.1 355.48 361.87"/><polygon class="cls-7" points="316.32 376.52 296.75 383.85 454.62 457.12 474.22 449.76 316.32 376.52"/><polygon class="cls-7" points="394.61 347.19 375.02 354.51 422.57 376.63 442.14 369.28 394.61 347.19"/><polygon class="cls-7" points="474 416.86 454.43 424.19 509.59 449.76 529.15 442.44 474 416.86"/><path class="cls-9" d="M391.78,364.57l-16.16-7.49,20-7.46,16.15,7.49Zm-15.45-7.46,15.46,7.16L411,357.08l-15.45-7.16Z"/><path class="cls-9" d="M407.58,371.9l-16.15-7.49,19.95-7.47,16.16,7.49Zm-15.44-7.47,15.46,7.17,19.23-7.19-15.46-7.17Z"/><path class="cls-9" d="M423.39,379.25l-.05,0-16.1-7.5,19.95-7.46,16.13,7.49ZM408,371.76,423.4,379l19.21-7.22-15.43-7.16Z"/><path class="cls-9" d="M352.51,379.14l-16.16-7.49,20-7.46,16.15,7.49Zm-15.45-7.46,15.46,7.16,19.23-7.19-15.45-7.16Z"/><path class="cls-9" d="M368.32,386.47,352.16,379l19.95-7.46L388.27,379ZM352.87,379l15.46,7.16L387.56,379l-15.46-7.17Z"/><path class="cls-9" d="M384.12,393.82l-.05,0L368,386.3l19.95-7.46,16.16,7.49Zm-15.44-7.49,15.45,7.19,19.24-7.21-15.46-7.17Z"/><path class="cls-9" d="M399.93,401.15l-16.16-7.49,20-7.49,0,0,16.1,7.5Zm-15.45-7.46,15.46,7.16,19.23-7.19-15.45-7.19Z"/><path class="cls-9" d="M431.54,415.8l-16.16-7.49,20-7.46,16.15,7.49Zm-15.44-7.46,15.45,7.16,19.23-7.19-15.45-7.16Z"/><g class="cls-10"><polygon class="cls-11" points="401.03 403.74 416.84 411.07 436.43 403.74 420.63 396.42 401.03 403.74"/></g><path class="cls-9" d="M447.35,423.13l-16.16-7.49,19.95-7.46,16.16,7.49Zm-15.45-7.46,15.46,7.16,19.23-7.19-15.46-7.17Z"/><path class="cls-9" d="M471.17,434.19,455,426.7,475,419.24l16.16,7.49Zm-15.45-7.46,15.46,7.16,19.23-7.19L475,419.53Z"/><path class="cls-9" d="M487,441.51,470.82,434l19.95-7.47,16.16,7.49Zm-15.44-7.46L487,441.22,506.22,434l-15.46-7.17Z"/><path class="cls-9" d="M502.78,448.87l0,0-16.11-7.49,20-7.46,16.15,7.49Zm-15.45-7.49,15.46,7.19L522,441.35l-15.45-7.16Z"/><path class="cls-9" d="M430.94,349.92l-.06,0-16.1-7.49,19.93-7.46,16.15,7.49Zm-15.45-7.49L431,349.62l19.2-7.22-15.45-7.17Z"/><path class="cls-9" d="M470.1,335.23l-16.16-7.48,19.93-7.47L490,327.77Zm-15.45-7.46,15.46,7.17,19.2-7.19-15.45-7.17Z"/><path class="cls-9" d="M509.34,320.64l-.06,0-16.1-7.49,19.93-7.46,16.15,7.49Zm-15.45-7.49,15.46,7.19,19.2-7.22L513.1,306Z"/><path class="cls-9" d="M485.9,342.56l-16.15-7.49,19.92-7.46,16.16,7.49Zm-15.44-7.46,15.45,7.16,19.21-7.19-15.46-7.16Z"/><path class="cls-9" d="M501.71,349.92l0,0-16.11-7.49,19.93-7.46,16.15,7.49Zm-15.45-7.49,15.46,7.19,19.2-7.22-15.45-7.17Z"/><path class="cls-9" d="M462.55,364.57l-16.16-7.49,19.93-7.46,16.16,7.49Zm-15.45-7.46,15.46,7.16,19.21-7.19-15.46-7.16Z"/><g class="cls-10"><polygon class="cls-11" points="432.04 352.51 447.85 359.84 467.41 352.51 451.61 345.16 432.04 352.51"/></g><path class="cls-9" d="M485,375l-16.15-7.49,19.92-7.46L505,367.53Zm-15.44-7.47L485,374.7l19.21-7.19-15.46-7.17Z"/><path class="cls-9" d="M500.83,382.32l-16.16-7.49,19.93-7.46,16.16,7.49Zm-15.45-7.46L500.84,382l19.21-7.2-15.46-7.16Z"/><path class="cls-9" d="M313.35,393.79l-16.15-7.48,19.92-7.47,16.16,7.49Zm-15.44-7.46,15.45,7.17,19.21-7.19-15.46-7.17Z"/><path class="cls-9" d="M329.16,401.12,313,393.63l19.93-7.46,16.15,7.49Zm-15.45-7.46,15.46,7.16,19.2-7.19-15.45-7.16Z"/><path class="cls-9" d="M345,408.48l0,0L328.81,401l19.92-7.46L364.89,401ZM329.52,401,345,408.18,364.18,401l-15.46-7.17Z"/><path class="cls-9" d="M360.77,415.8l-16.16-7.49,19.93-7.49,0,0,16.11,7.49Zm-15.45-7.46,15.46,7.16L380,408.31l-15.46-7.19Z"/><path class="cls-9" d="M376.58,423.13l-16.16-7.49,19.93-7.46,16.15,7.49Zm-15.45-7.46,15.46,7.16,19.2-7.19-15.45-7.17Z"/><path class="cls-9" d="M392.38,430.46,376.23,423l19.92-7.47L412.31,423ZM376.94,423l15.45,7.17L411.6,423l-15.46-7.17Z"/><path class="cls-9" d="M408.19,437.78,392,430.29,412,422.83l16.15,7.49Zm-15.45-7.46,15.46,7.17,19.2-7.2L412,423.13Z"/><path class="cls-9" d="M424,445.14l-.05,0-16.1-7.49,19.93-7.46,16.15,7.49Zm-15.44-7.49L424,444.84l19.2-7.22-15.46-7.16Z"/><path class="cls-9" d="M439.8,452.46,423.65,445l19.92-7.49.05,0L459.73,445ZM424.35,445l15.46,7.17L459,445l-15.46-7.19Z"/><rect class="cls-6" x="185.89" y="327.81" width="0.27" height="90.28"/><rect class="cls-6" x="196.7" y="332.84" width="0.27" height="90.28"/><rect class="cls-6" x="207.52" y="337.86" width="0.27" height="90.28"/><rect class="cls-6" x="218.33" y="342.88" width="0.27" height="90.25"/><rect class="cls-6" x="229.14" y="347.87" width="0.27" height="90.28"/><rect class="cls-6" x="239.95" y="352.89" width="0.27" height="90.28"/><rect class="cls-6" x="250.76" y="357.92" width="0.27" height="90.28"/><rect class="cls-6" x="261.57" y="362.94" width="0.27" height="90.25"/><rect class="cls-6" x="272.39" y="367.93" width="0.27" height="90.28"/><rect class="cls-6" x="283.17" y="372.95" width="0.27" height="90.28"/><rect class="cls-6" x="293.98" y="377.98" width="0.27" height="90.28"/><rect class="cls-6" x="304.79" y="383" width="0.27" height="90.25"/><rect class="cls-6" x="245.34" y="289.86" width="0.27" height="131.08" transform="translate(-180.24 428.45) rotate(-65.1)"/><rect class="cls-6" x="245.34" y="302.76" width="0.27" height="131.08" transform="translate(-191.94 435.92) rotate(-65.1)"/><rect class="cls-6" x="245.34" y="315.66" width="0.27" height="131.08" transform="translate(-203.64 443.39) rotate(-65.1)"/><rect class="cls-6" x="245.34" y="328.56" width="0.27" height="131.08" transform="translate(-215.34 450.86) rotate(-65.1)"/><rect class="cls-6" x="245.34" y="341.45" width="0.27" height="131.08" transform="translate(-227.04 458.33) rotate(-65.1)"/><rect class="cls-6" x="245.34" y="354.34" width="0.27" height="131.07" transform="translate(-238.71 465.88) rotate(-65.11)"/><rect class="cls-6" x="245.34" y="367.24" width="0.27" height="131.07" transform="translate(-250.41 473.35) rotate(-65.11)"/><rect class="cls-6" x="245.34" y="380.14" width="0.27" height="131.07" transform="translate(-262.11 480.82) rotate(-65.11)"/><polygon class="cls-11" points="279.93 405.06 262.23 408.88 254.6 406.76 221.62 411.1 205.1 402.18 180.6 410.6 180.6 410.19 208.42 400.62 224.97 409.53 257.95 405.17 265.58 407.31 283.25 403.5 279.93 405.06"/><polygon class="cls-12" points="221.59 411.24 205.09 402.33 180.64 410.73 180.55 410.47 205.11 402.03 221.65 410.96 254.62 406.62 254.64 406.63 262.24 408.73 279.9 404.93 279.96 405.19 262.23 409.02 254.59 406.9 221.59 411.24"/><polygon class="cls-11" points="279.93 405.06 277.74 406.02 287.1 403.25 284.85 402.76 283.25 403.5 279.93 405.06"/><polygon class="cls-12" points="287.1 403.47 287.1 403.25 277.74 406.02 277.74 406.27 287.1 403.47"/><path class="cls-13" d="M390.82,353.87l-16.16-7.49,20-7.49.05,0,16.1,7.5Zm-15.45-7.47,15.46,7.17,19.23-7.19-15.46-7.19Z"/><path class="cls-13" d="M406.62,361.19l-16.15-7.49,19.95-7.46,16.16,7.49Zm-15.44-7.46,15.46,7.17,19.23-7.2-15.46-7.16Z"/><path class="cls-13" d="M422.43,368.52,406.27,361l20-7.46,16.13,7.49ZM407,361.06l15.45,7.16L441.65,361l-15.43-7.16Z"/><path class="cls-13" d="M351.54,368.74l-16.86-7.82,20.68-7.76L372.21,361ZM336.81,361l14.76,6.84,18.51-6.92-14.76-6.87Z"/><path class="cls-13" d="M367.34,376.06l-16.85-7.81,20.67-7.73L388,368.33Zm-14.72-7.73,14.76,6.84,18.51-6.92-14.76-6.84Z"/><path class="cls-13" d="M383.16,383.09,367,375.6,387,368.14l16.16,7.49Zm-15.44-7.46,15.45,7.16,19.23-7.19L387,368.44Z"/><path class="cls-13" d="M399,390.45l-.05,0-16.11-7.49,20-7.46L418.92,383ZM383.52,383,399,390.15l19.23-7.22-15.46-7.17Z"/><path class="cls-13" d="M430.58,405.1l-16.16-7.49,20-7.46,16.15,7.49Zm-15.44-7.46,15.45,7.16,19.23-7.19-15.45-7.16Z"/><path class="cls-13" d="M446.39,412.43l-16.16-7.49,19.95-7.46L466.34,405ZM430.94,405l15.46,7.17,19.23-7.19-15.46-7.17Z"/><path class="cls-13" d="M470.21,423.49,454.05,416,474,408.51l.06,0,16.1,7.49ZM454.76,416l15.46,7.17L489.45,416,474,408.8Z"/><path class="cls-13" d="M486,430.81l-16.15-7.49,19.95-7.46L506,423.35Zm-15.44-7.46L486,430.51l19.23-7.19-15.45-7.16Z"/><path class="cls-13" d="M501.82,438.14l-16.16-7.49,20-7.46,16.15,7.49Zm-15.45-7.46,15.46,7.16,19.23-7.19-15.46-7.16Z"/><path class="cls-13" d="M430,339.19l-16.16-7.49,19.93-7.47,16.15,7.49Zm-15.45-7.47L430,338.89l19.2-7.19-15.45-7.17Z"/><path class="cls-13" d="M469.14,324.53,453,317l19.93-7.46,16.15,7.49Zm-15.45-7.46,15.46,7.16,19.2-7.19-15.46-7.16Z"/><path class="cls-13" d="M508.38,309.91l-16.16-7.49L512.15,295l16.15,7.49Zm-15.45-7.47,15.46,7.17,19.2-7.19-15.45-7.17Z"/><path class="cls-13" d="M484.94,331.86l-16.15-7.49,19.92-7.46,16.16,7.49ZM469.5,324.4,485,331.56l19.21-7.19-15.46-7.16Z"/><path class="cls-13" d="M500.75,339.19l-16.16-7.49,19.93-7.47,16.15,7.49Zm-15.45-7.47,15.46,7.17L520,331.7l-15.45-7.17Z"/><path class="cls-13" d="M461.59,353.87l-16.16-7.49,19.93-7.49.05,0,16.1,7.5Zm-15.45-7.47,15.46,7.17,19.21-7.19-15.46-7.19Z"/><path class="cls-13" d="M484.06,364.29l-16.15-7.48,19.92-7.49.06,0,16.1,7.49Zm-15.44-7.46L484.07,364l19.21-7.19-15.46-7.2Z"/><path class="cls-13" d="M499.87,371.62l-16.16-7.49,19.93-7.46,16.16,7.49Zm-15.45-7.46,15.46,7.16,19.21-7.19L503.63,357Z"/><path class="cls-13" d="M312.39,383.09l-16.15-7.49,19.92-7.49,0,0,16.11,7.49Zm-15.45-7.46,15.46,7.16,19.21-7.19-15.46-7.19Z"/><path class="cls-13" d="M328.2,390.42,312,382.93,332,375.47,348.12,383ZM312.75,383l15.46,7.16,19.2-7.19L332,375.76Z"/><path class="cls-13" d="M344,397.75l-16.15-7.49,19.92-7.47,16.16,7.49Zm-15.44-7.47L344,397.45l19.21-7.19-15.46-7.17Z"/><path class="cls-13" d="M359.81,405.1l-.05,0-16.11-7.5,19.93-7.46,16.16,7.49Zm-15.45-7.49,15.46,7.19L379,397.58l-15.46-7.16Z"/><path class="cls-13" d="M375.62,412.43l-16.16-7.49,19.93-7.49.05,0,16.1,7.49ZM360.17,405l15.46,7.17,19.2-7.19-15.46-7.19Z"/><path class="cls-13" d="M391.42,419.75l-16.15-7.49,19.92-7.46,16.16,7.49ZM376,412.29l15.45,7.17,19.21-7.2-15.46-7.16Z"/><path class="cls-13" d="M407.23,427.08l-16.16-7.49L411,412.13l16.15,7.49Zm-15.45-7.46,15.46,7.16,19.2-7.19L411,412.43Z"/><path class="cls-13" d="M423,434.7l-16.85-7.81,20.65-7.73L443.67,427ZM408.3,427l14.76,6.84,18.48-6.92-14.76-6.84Z"/><path class="cls-13" d="M438.83,442.06,422,434.22l20.64-7.73,16.86,7.81ZM424.1,434.3l14.76,6.87,18.49-6.95-14.76-6.84Z"/><path class="cls-13" d="M454.64,449.39l-16.86-7.82,20.65-7.76,16.85,7.84Zm-14.73-7.74,14.76,6.84,18.48-6.92-14.76-6.87Z"/><path class="cls-13" d="M470.45,456.41l-16.15-7.48,19.92-7.47L490.38,449ZM455,449l15.45,7.17,19.21-7.19-15.46-7.17Z"/><g class="cls-14"><polygon class="cls-11" points="398.97 387.55 414.78 394.88 434.37 387.55 418.57 380.2 398.97 387.55"/></g><g class="cls-14"><polygon class="cls-11" points="429.98 336.29 445.79 343.65 465.35 336.29 449.55 328.97 429.98 336.29"/></g><rect class="cls-12" x="446.97" y="250.24" width="0.27" height="84.85"/><rect class="cls-12" x="435.09" y="275.89" width="0.27" height="84.85"/><polygon class="cls-12" points="445.65 289.4 448.53 290.74 448.53 283.19 445.68 281.66 445.65 289.4"/><path class="cls-12" d="M447.11,250.37a1.32,1.32,0,1,1,1.31-1.31A1.32,1.32,0,0,1,447.11,250.37Zm0-2.36a1,1,0,1,0,1,1.05A1,1,0,0,0,447.11,248Z"/><path class="cls-12" d="M435.22,276a1.32,1.32,0,1,1,1.32-1.32A1.32,1.32,0,0,1,435.22,276Zm0-2.36a1,1,0,1,0,1,1A1,1,0,0,0,435.22,273.62Z"/><circle class="cls-12" cx="417.39" cy="386.81" r="1.18"/><circle class="cls-12" cx="441.43" cy="434.26" r="1.18"/><circle class="cls-12" cx="447.11" cy="335.09" r="1.18"/><circle class="cls-12" cx="353.01" cy="359.84" r="1.18"/><circle class="cls-12" cx="387.67" cy="354.9" r="1.18"/><path class="cls-12" d="M417.5,386.84h-.28V372.9a6.84,6.84,0,0,0-4-6.24l-56.94-26a2.39,2.39,0,0,0-.93-.21,2.25,2.25,0,0,0-2.22,2.22v17.13h-.28V342.71a2.51,2.51,0,0,1,2.5-2.49,2.58,2.58,0,0,1,1,.23l56.95,26a7.12,7.12,0,0,1,4.17,6.49Z"/><circle class="cls-12" cx="470.73" cy="317.03" r="1.18"/><path class="cls-12" d="M535.25,344.06H535V330.12a6.82,6.82,0,0,0-4-6.24l-56.94-26a2.39,2.39,0,0,0-.93-.21,2.23,2.23,0,0,0-2.22,2.22V317h-.27v-17.1a2.5,2.5,0,0,1,2.49-2.49,2.58,2.58,0,0,1,1,.23l57,26a7.12,7.12,0,0,1,4.17,6.49Z"/><path class="cls-12" d="M441.56,434.07h-.27V397.32a8.4,8.4,0,0,1,5.94-8.06l22.8-7.11a2.66,2.66,0,0,0,1.57-1.38,2.57,2.57,0,0,0-1.25-3.41l-79.2-36.55a2.52,2.52,0,0,0-1-.21,2.39,2.39,0,0,0-2.38,2.39v11.85h-.28V343a2.67,2.67,0,0,1,2.66-2.66,2.89,2.89,0,0,1,1.1.23l79.2,36.55a2.84,2.84,0,0,1,1.48,1.6,2.8,2.8,0,0,1-.1,2.18,2.93,2.93,0,0,1-1.73,1.53l-22.8,7.1a8.13,8.13,0,0,0-5.75,7.8Z"/><polygon class="cls-6" points="437.28 232.87 437.09 241.07 456.98 250.57 457.12 242.33 437.28 232.87"/><polygon class="cls-6" points="437.28 222 437.09 230.21 456.98 239.7 457.12 231.47 437.28 222"/><polygon class="cls-6" points="407.86 240.17 407.92 256.6 423.12 263.66 422.99 247.16 407.86 240.17"/><path class="cls-6" d="M475.51,290.38,406,258.26l-.05-16.74,69.45,32.09Zm-69.26-32.3,69,31.87-.13-16.16L406.19,242Z"/><path class="cls-6" d="M552.81,305.77l-69.54-32.12,0-16.77L552.67,289Zm-69.26-32.3,69,31.87-.13-16.19-68.91-31.84Z"/><polygon class="cls-12" points="430.59 357.42 430.56 360.19 439.56 364.34 439.56 361.54 430.59 357.42"/></g></g></g><g class="cls-15"><g class="cls-16"><g class="cls-17"><g class="cls-16"><g class="cls-18"><g class="cls-19"><g class="cls-20"><rect class="cls-21" x="27" y="394.1" width="21.89" height="22.63"/></g></g></g></g></g><g class="cls-22"><g class="cls-16"><rect class="cls-21" x="47" y="398" width="18" height="16"/></g></g><g class="cls-23"><g class="cls-16"><rect class="cls-21" x="57" y="398" width="18" height="16"/></g></g><g class="cls-24"><g class="cls-16"><rect class="cls-21" x="77" y="398" width="18" height="16"/></g></g><g class="cls-25"><g class="cls-16"><rect class="cls-21" x="87" y="398" width="18" height="16"/></g></g><g class="cls-26"><g class="cls-16"><rect class="cls-21" x="106" y="398" width="18" height="16"/></g></g><g class="cls-27"><g class="cls-16"><g class="cls-28"><g class="cls-29"><g class="cls-27"><rect class="cls-21" x="117" y="403" width="11" height="11"/></g></g><g class="cls-30"><g class="cls-27"><rect class="cls-21" x="130" y="398" width="11" height="16"/></g></g><g class="cls-31"><g class="cls-27"><rect class="cls-21" x="97" y="398" width="18" height="16"/></g></g><g class="cls-32"><g class="cls-27"><rect class="cls-21" x="67" y="398" width="18" height="16"/></g></g><g class="cls-33"><g class="cls-27"><rect class="cls-21" x="119" y="398" width="18" height="16"/></g></g></g></g></g></g></g><path class="cls-34" d="M46.48,52.84H44.8v-.9H37.38v.9H35.71V45.11c-.65.31-1.32.6-2,.88l-1-1.51a16.11,16.11,0,0,0,6-3.06H33.22V39.8h7V38.49c-1.66.09-3.42.14-5.3.14l-.5-1.49a69.56,69.56,0,0,0,12.3-.94l.79,1.35a42.31,42.31,0,0,1-5.64.83V39.8h6.86v1.62H43.4a14,14,0,0,0,5.78,3L48.44,46c-.72-.27-1.37-.54-2-.83ZM36.41,44.75h3.84v-3A12.49,12.49,0,0,1,36.41,44.75Zm8.39,2.9V46.26H37.38v1.39Zm0,2.77V49.11H37.38v1.31Zm-2.9-5.67h3.8a12.27,12.27,0,0,1-3.8-3Zm10.5.43-.57-1.83a19.8,19.8,0,0,0,3.92-7.28l1.62.74A20.73,20.73,0,0,1,55.7,40.7V52.89H54V43.31C53.48,44,53,44.57,52.4,45.18ZM68,42.88H66.32v-2.5h-2.9a18.17,18.17,0,0,0,1.41,5.36A13,13,0,0,0,67,43.67l1.28,1.12a13.74,13.74,0,0,1-2.81,2.32,14.09,14.09,0,0,0,3.19,4l-1,1.62a18.36,18.36,0,0,1-5.51-10.82,17.94,17.94,0,0,1-1.46,2.76v6a23.59,23.59,0,0,0,2.74-1l.23,1.54a37.5,37.5,0,0,1-5.31,1.55L58,51.25c.7-.18,1.06-.5,1.06-1V46.73A13.56,13.56,0,0,1,57,48.53L56.16,47A14.15,14.15,0,0,0,61,40.38H58.76v2.5H57.08V38.79h4.4c.23-.86.43-1.76.59-2.7l1.69.22c-.16.86-.34,1.69-.54,2.48H68ZM74.46,41V38.7c-.81.11-1.64.22-2.47.29l-.32-1.6a30.53,30.53,0,0,0,6.23-1.08l.59,1.6c-.74.2-1.51.38-2.3.52V41h2.3v1.64h-2.3v.7a34.63,34.63,0,0,1,2.91,2.49l-.95,1.46c-.77-1-1.42-1.73-2-2.31V52.8H74.46V45a17.34,17.34,0,0,1-2.61,4.34l-.76-1.91a13.27,13.27,0,0,0,3.17-4.88H71.65V41ZM88,47.51l-1.7.27v5H84.52V48.07l-5.42.86-.25-1.66,5.67-.92v-10h1.73v9.77l1.43-.23ZM83.5,44.1l-1.23,1.21a20.39,20.39,0,0,0-3.17-2.77l1.21-1.17A22.49,22.49,0,0,1,83.5,44.1ZM84,39.84,82.8,41a18.24,18.24,0,0,0-3.16-2.63l1.21-1.17A21.92,21.92,0,0,1,84,39.84Zm7.24,12.82-.36-1.61a7.63,7.63,0,0,0,1.31.11c.43,0,.65-.25.65-.74V46.61c-.65.25-1.32.5-2,.72l-.44-1.7a18.76,18.76,0,0,0,2.4-.7V41h-2V39.4h2V36.25h1.65V39.4h1.77V41H94.46v3.21c.62-.29,1.21-.6,1.81-.92V45c-.6.33-1.19.62-1.81.9v5c0,1.18-.57,1.8-1.72,1.8Zm9.74-14V36.29h1.65V38.7h4.22v1.64H102.6v2.58h3.53v1.51a11.31,11.31,0,0,1-2.9,4.84,17.84,17.84,0,0,0,4.09,2.2l-.88,1.4a20.06,20.06,0,0,1-4.38-2.55,17.66,17.66,0,0,1-5,2.61l-.81-1.43a15.18,15.18,0,0,0,4.58-2.25A10.57,10.57,0,0,1,98,44.52h-.94v-1.6H101V40.34H96.73V38.7ZM102,48.26a10.51,10.51,0,0,0,2.43-3.74H99.63A8.53,8.53,0,0,0,102,48.26Zm15.43-9.13a13.39,13.39,0,0,0-1.73-2.44l1.71-.63a17.65,17.65,0,0,1,1.82,3.07h6.82v1.7h-2.75a18.21,18.21,0,0,1-3.84,6.88,24,24,0,0,0,7,3.81l-1,1.44a23.9,23.9,0,0,1-7.22-4.05,19.4,19.4,0,0,1-7.51,4l-.92-1.51a17.7,17.7,0,0,0,7.22-3.59,16.08,16.08,0,0,1-4.14-7H110.2v-1.7Zm.83,7.51a15.39,15.39,0,0,0,3.27-5.81h-7A14.43,14.43,0,0,0,118.29,46.64Zm15.12,6.14H131.7V44.43a21.23,21.23,0,0,1-2,4.18L129,46.75a15.74,15.74,0,0,0,2.7-5.49H129.4V39.62h2.3V36.25h1.71v3.37h2v1.64h-2v.83c.81.86,1.62,1.82,2.43,2.82l-1,1.44c-.54-.9-1-1.67-1.44-2.3Zm5.37-11.88-1.48.74A27.4,27.4,0,0,0,135.47,38l1.51-.74A37.43,37.43,0,0,1,138.78,40.9Zm.9,1.44V36.25h1.75v6.09h3.67V52.85h-1.69v-.64h-7.82V50.53h7.82V48.07h-7.1V46.44h7.1V44h-7.55V42.34Zm5.89-4.48a22.35,22.35,0,0,1-1.88,3.8l-1.45-.76a22.22,22.22,0,0,0,1.81-3.76Zm8-1.34c-.15.83-.31,1.61-.49,2.34h4v1.53a19.08,19.08,0,0,1-2.65,7.77,4.78,4.78,0,0,0,1.14,1.24c1.33,1,3.46,1.46,6.37,1.49,1,0,2.07,0,3.15-.12l-.34,1.78h-2q-5.67,0-8.15-1.89a6.21,6.21,0,0,1-1.14-1.15,13.3,13.3,0,0,1-3.87,3.2l-.92-1.62a11.92,11.92,0,0,0,3.77-3.24A21.15,21.15,0,0,1,151,44.21a15.06,15.06,0,0,1-1.38,2l-1.18-1.45a17.83,17.83,0,0,0,3.46-8.48Zm-.18,9.82a18.51,18.51,0,0,0,2-5.84h-2.76c-.2.6-.41,1.16-.63,1.7A25.73,25.73,0,0,0,153.35,46.34Zm7.38-10v4.55c1.44,1,2.92,2.22,4.43,3.53l-1,1.53c-1.33-1.37-2.47-2.47-3.4-3.26v7H159V36.33Zm9.16,6.44V38.92h-2V37.3h5.82v1.62h-2v3.85h1.82v1.64h-1.82V48c.62-.21,1.21-.43,1.79-.68V49a39.94,39.94,0,0,1-5.32,1.66L167.68,49c.76-.12,1.49-.29,2.21-.47V44.41h-1.78V42.77Zm13.54-5.92v8.6h-3.69v1.8h3.93v1.59h-3.93v1.87h4.56v1.64H173.41V50.71h4.64V48.84h-3.94V47.25h3.94v-1.8h-3.73v-8.6Zm-5.38,3.56v-2H176v2Zm0,1.48H176v2h2.09Zm1.69-1.48h2.06v-2h-2.06Zm2.06,1.48h-2.06v2h2.06Zm11,6.68a18.09,18.09,0,0,1-4.52,3.83L187.2,51a18,18,0,0,0,4.39-3.51Zm-.18,4.23-.4-1.67a17.12,17.12,0,0,0,1.84.1.52.52,0,0,0,.58-.59v-4c-1.73.11-3.57.2-5.55.29l-.47-1.5a6.91,6.91,0,0,0,1.48-.3,22.77,22.77,0,0,0,4.37-2.61c-1.44.11-3,.21-4.61.3l-.36-1.51a3.42,3.42,0,0,0,1.16-.3,10,10,0,0,0,2.59-2.22c-1.42,0-2.92.09-4.5.09l-.51-1.48a70.69,70.69,0,0,0,13.06-1l.84,1.42a47.14,47.14,0,0,1-6.77.88,17,17,0,0,1-2.91,2.71l3.78-.24c.75-.63,1.55-1.31,2.36-2l1.58.77a46.8,46.8,0,0,1-7.45,5.49c2.5-.16,4.68-.36,6.53-.57-.39-.52-.79-1-1.22-1.57l1.26-.79A36.69,36.69,0,0,1,202.74,47l-1.37,1c-.32-.58-.7-1.17-1.12-1.78-1.19.14-2.48.27-3.9.37v4.52a1.53,1.53,0,0,1-1.7,1.75Zm10.66-1.55-1.23,1.23a26.4,26.4,0,0,0-4.41-4l1.14-1.12A31.15,31.15,0,0,1,203.28,51.25ZM211,36.81A31.23,31.23,0,0,1,208.36,42q.91-.11,1.83-.27c.31-.57.63-1.2,1-1.87l1.53.58A46.2,46.2,0,0,1,209,46.52a25.72,25.72,0,0,0,3.4-1.21v1.57a25.06,25.06,0,0,1-5.54,1.64l-.45-1.59a3.1,3.1,0,0,0,.77-.5,18.3,18.3,0,0,0,2.11-3.08c-.83.14-1.69.27-2.59.39l-.44-1.56a1.66,1.66,0,0,0,.74-.67,32.47,32.47,0,0,0,2.27-5.35Zm1.49,13.29a25.89,25.89,0,0,1-5.6,2l-.19-1.71a26.18,26.18,0,0,0,5.79-1.95ZM216,44.88a14.68,14.68,0,0,1-.84,5,7.34,7.34,0,0,1-2.61,2.92l-1.08-1.35a5.87,5.87,0,0,0,2.16-2.32,12,12,0,0,0,.72-4.27Zm-3.36-2.07a1.74,1.74,0,0,0,.34-.13,9.77,9.77,0,0,0,2.09-3h-2.79V38h4.37a15.17,15.17,0,0,0-.7-1.62l1.75-.29c.23.58.46,1.21.68,1.91h3.94v1.64h-5.47a23,23,0,0,1-1.84,3c1.46-.15,2.92-.33,4.36-.54-.36-.51-.72-1-1.08-1.48l1.3-.81a35.21,35.21,0,0,1,2.75,4l-1.33.92c-.22-.41-.47-.83-.72-1.26q-3.34.51-7.28.81Zm7.14,9.72c-1.27,0-1.9-.58-1.9-1.71V44.68h1.63V50.5c0,.28.11.46.33.5h1c.32,0,.52-.27.55-.7a18.42,18.42,0,0,0,.09-2.09l1.48.52a7.62,7.62,0,0,1-.39,3.17,2.21,2.21,0,0,1-1.64.63Z"/><path class="cls-35" d="M130.37,254.44c2,0,2.95.84,2.95,2.52s-1,2.54-3,2.54h-2.5V263h-1v-8.56Zm-2.52,4.21h2.46a2.41,2.41,0,0,0,1.53-.42,1.6,1.6,0,0,0,.49-1.27,1.48,1.48,0,0,0-.5-1.25,2.28,2.28,0,0,0-1.52-.42h-2.46Z"/><path class="cls-35" d="M140,254.27V263h-.9v-1a2.19,2.19,0,0,1-2.06,1.19,2.55,2.55,0,0,1-2.13-1,3.66,3.66,0,0,1-.69-2.3,3.57,3.57,0,0,1,.69-2.25,2.45,2.45,0,0,1,2.08-1,2.23,2.23,0,0,1,2.05,1.31v-3.67Zm-4.34,3.87a2.81,2.81,0,0,0-.46,1.74,3,3,0,0,0,.45,1.76,1.72,1.72,0,0,0,1.51.74,1.69,1.69,0,0,0,1.45-.72,2.93,2.93,0,0,0,.45-1.69v-.12a2.92,2.92,0,0,0-.51-1.76,1.65,1.65,0,0,0-1.36-.67A1.74,1.74,0,0,0,135.65,258.14Z"/><path class="cls-35" d="M145.15,254.44v.82h-1.07a.72.72,0,0,0-.59.21,1,1,0,0,0-.18.65v.68h1.76v.8h-1.76V263h-1v-5.4H140.8v-.8h1.55v-.71a1.73,1.73,0,0,1,.4-1.21,1.56,1.56,0,0,1,1.21-.44Z"/><path class="cls-35" d="M153.76,254.44a3.15,3.15,0,0,1,2,.58,2.21,2.21,0,0,1,.77,1.8,2.09,2.09,0,0,1-.4,1.27,2,2,0,0,1-1.16.75v0a1.65,1.65,0,0,1,1.37,1.56l.13,1.32a2.31,2.31,0,0,0,.45,1.26h-1.06a2.2,2.2,0,0,1-.35-1.14l-.11-1.14a1.44,1.44,0,0,0-.54-1.09,2,2,0,0,0-1.24-.31h-2.59V263h-1v-8.56Zm-2.71,4h2.59a2.2,2.2,0,0,0,1.46-.45,1.48,1.48,0,0,0,.45-1.16,1.5,1.5,0,0,0-.44-1.18,2.29,2.29,0,0,0-1.47-.39h-2.59Z"/><path class="cls-35" d="M162.87,257.64a4.23,4.23,0,0,1,.72,2.53H158.7a2.7,2.7,0,0,0,.56,1.62,1.78,1.78,0,0,0,1.39.57,1.93,1.93,0,0,0,1.24-.38,2.17,2.17,0,0,0,.62-1h1a2.75,2.75,0,0,1-.84,1.46,2.85,2.85,0,0,1-2,.7,2.77,2.77,0,0,1-2.13-.88,3.84,3.84,0,0,1,0-4.69,2.93,2.93,0,0,1,4.39,0Zm-3.56.33a2.37,2.37,0,0,0-.59,1.46h3.88c-.12-1.34-.78-2-2-2A1.77,1.77,0,0,0,159.31,258Z"/><path class="cls-35" d="M166.38,256.8h1.53v.8h-1.53v3.95a.67.67,0,0,0,.13.49.58.58,0,0,0,.46.16h.79v.8h-.94a1.34,1.34,0,0,1-1.09-.4,1.58,1.58,0,0,1-.3-1.05V257.6h-1.25v-.8h1.25v-1.61l.95-.39Z"/><path class="cls-35" d="M172.56,256.78v1a3.09,3.09,0,0,0-.93-.14,1.47,1.47,0,0,0-1.21.64,2.27,2.27,0,0,0-.49,1.47V263h-1v-6.2h1v1.08a2.19,2.19,0,0,1,.65-.85,1.68,1.68,0,0,1,1.13-.4A2.15,2.15,0,0,1,172.56,256.78Z"/><path class="cls-35" d="M174.67,254.66a.64.64,0,0,1,.22.51.73.73,0,0,1-.74.72.69.69,0,0,1-.51-.21.66.66,0,0,1-.21-.51.61.61,0,0,1,.21-.51.69.69,0,0,1,.51-.2A.69.69,0,0,1,174.67,254.66Zm0,2.14V263h-1v-6.2Z"/><path class="cls-35" d="M181.24,257.64a4.23,4.23,0,0,1,.72,2.53h-4.89a2.7,2.7,0,0,0,.56,1.62,1.79,1.79,0,0,0,1.4.57,1.92,1.92,0,0,0,1.23-.38,2.17,2.17,0,0,0,.62-1h1a2.75,2.75,0,0,1-.84,1.46,2.84,2.84,0,0,1-2,.7,2.77,2.77,0,0,1-2.14-.88,3.88,3.88,0,0,1,0-4.69,2.93,2.93,0,0,1,4.39,0Zm-3.56.33a2.43,2.43,0,0,0-.59,1.46H181c-.12-1.34-.78-2-2-2A1.77,1.77,0,0,0,177.68,258Z"/><path class="cls-35" d="M183.47,256.8l1.77,5,1.78-5h1l-2.35,6.2h-1l-2.34-6.2Z"/><path class="cls-35" d="M193.54,257.33a2.47,2.47,0,0,1,.56,1.69v4h-.9v-1a2.91,2.91,0,0,1-.95.82,3.08,3.08,0,0,1-1.55.39,2.27,2.27,0,0,1-1.49-.47,1.56,1.56,0,0,1-.57-1.25,1.74,1.74,0,0,1,.85-1.59,3.9,3.9,0,0,1,2.16-.53l1.49,0V259q0-1.56-1.62-1.56a2,2,0,0,0-1.12.28,1.33,1.33,0,0,0-.62.89l-.95-.08a2.14,2.14,0,0,1,1-1.45,3.36,3.36,0,0,1,1.79-.43A2.52,2.52,0,0,1,193.54,257.33Zm-1.83,2.72c-1.39,0-2.09.48-2.09,1.38a.87.87,0,0,0,.35.71,1.52,1.52,0,0,0,.94.27,2.34,2.34,0,0,0,1.55-.57,1.67,1.67,0,0,0,.68-1.29V260Z"/><path class="cls-35" d="M196.73,254.27V263h-.95v-8.73Z"/><path class="cls-35" d="M207.07,257.33a2.47,2.47,0,0,1,.55,1.69v4h-.9v-1a2.81,2.81,0,0,1-.95.82,3.05,3.05,0,0,1-1.55.39,2.23,2.23,0,0,1-1.48-.47,1.54,1.54,0,0,1-.58-1.25,1.76,1.76,0,0,1,.85-1.59,4,4,0,0,1,2.16-.53l1.49,0V259q0-1.56-1.62-1.56a1.94,1.94,0,0,0-1.11.28,1.34,1.34,0,0,0-.63.89l-1-.08a2.18,2.18,0,0,1,1-1.45,3.39,3.39,0,0,1,1.79-.43A2.53,2.53,0,0,1,207.07,257.33Zm-1.84,2.72c-1.39,0-2.08.48-2.08,1.38a.86.86,0,0,0,.34.71,1.54,1.54,0,0,0,.94.27,2.37,2.37,0,0,0,1.56-.57,1.69,1.69,0,0,0,.67-1.29V260Z"/><path class="cls-35" d="M214.33,259.19V263h-1v-3.74c0-1.21-.55-1.81-1.63-1.81a1.53,1.53,0,0,0-1.12.46,2.05,2.05,0,0,0-.55,1.35V263h-1v-6.2h1v.91a2.16,2.16,0,0,1,.83-.79,2.19,2.19,0,0,1,1.11-.29C213.55,256.63,214.33,257.48,214.33,259.19Z"/><path class="cls-35" d="M221.36,254.27V263h-.9v-1a2.19,2.19,0,0,1-2.06,1.19,2.57,2.57,0,0,1-2.13-1,3.66,3.66,0,0,1-.69-2.3,3.57,3.57,0,0,1,.69-2.25,2.45,2.45,0,0,1,2.08-1,2.23,2.23,0,0,1,2.05,1.31v-3.67ZM217,258.14a2.88,2.88,0,0,0-.46,1.74,3,3,0,0,0,.45,1.76,1.73,1.73,0,0,0,1.51.74,1.69,1.69,0,0,0,1.45-.72,2.93,2.93,0,0,0,.45-1.69v-.12a2.92,2.92,0,0,0-.51-1.76,1.65,1.65,0,0,0-1.36-.67A1.74,1.74,0,0,0,217,258.14Z"/><path class="cls-35" d="M228,254.44V263h-1v-8.56Z"/><path class="cls-35" d="M234.91,259.19V263h-1v-3.74c0-1.21-.55-1.81-1.63-1.81a1.52,1.52,0,0,0-1.12.46,2.05,2.05,0,0,0-.55,1.35V263h-1v-6.2h1v.91a2.16,2.16,0,0,1,.83-.79,2.19,2.19,0,0,1,1.11-.29C234.13,256.63,234.91,257.48,234.91,259.19Z"/><path class="cls-35" d="M240.07,254.44v.82H239a.72.72,0,0,0-.59.21,1,1,0,0,0-.18.65v.68H240v.8h-1.75V263h-1v-5.4h-1.56v-.8h1.56v-.71a1.73,1.73,0,0,1,.4-1.21,1.55,1.55,0,0,1,1.21-.44Z"/><path class="cls-35" d="M245.86,257.59a3.78,3.78,0,0,1,0,4.61,2.82,2.82,0,0,1-2.23,1,2.76,2.76,0,0,1-2.21-1,3.35,3.35,0,0,1-.8-2.29,3.41,3.41,0,0,1,.8-2.32,3,3,0,0,1,4.43,0Zm-3.75.6a3.23,3.23,0,0,0,0,3.42,1.77,1.77,0,0,0,1.53.75,1.85,1.85,0,0,0,1.55-.75,3.23,3.23,0,0,0,0-3.42,1.85,1.85,0,0,0-1.55-.75A1.77,1.77,0,0,0,242.11,258.19Z"/><path class="cls-35" d="M251.48,256.78v1a3,3,0,0,0-.92-.14,1.49,1.49,0,0,0-1.22.64,2.27,2.27,0,0,0-.49,1.47V263h-.94v-6.2h.94v1.08a2.29,2.29,0,0,1,.65-.85,1.7,1.7,0,0,1,1.13-.4A2.15,2.15,0,0,1,251.48,256.78Z"/><path class="cls-35" d="M256.94,257.81a2.31,2.31,0,0,1,.86-.89,2,2,0,0,1,1.09-.29,2.09,2.09,0,0,1,1.57.61,2.4,2.4,0,0,1,.59,1.69V263h-1v-3.91a1.87,1.87,0,0,0-.34-1.22,1.42,1.42,0,0,0-1.16-.42,1.3,1.3,0,0,0-1,.45,1.73,1.73,0,0,0-.42,1.21V263h-.95v-3.91c0-1.1-.48-1.64-1.43-1.64a1.32,1.32,0,0,0-1.09.52,1.87,1.87,0,0,0-.44,1.25V263h-1v-6.2h1v.83a2.09,2.09,0,0,1,1.76-1A1.93,1.93,0,0,1,256.94,257.81Z"/><path class="cls-35" d="M267.21,257.33a2.47,2.47,0,0,1,.55,1.69v4h-.9v-1a2.88,2.88,0,0,1-.94.82,3.1,3.1,0,0,1-1.55.39,2.24,2.24,0,0,1-1.49-.47,1.56,1.56,0,0,1-.57-1.25,1.74,1.74,0,0,1,.85-1.59,3.9,3.9,0,0,1,2.16-.53l1.48,0V259q0-1.56-1.62-1.56a2,2,0,0,0-1.11.28,1.34,1.34,0,0,0-.63.89l-.94-.08a2.11,2.11,0,0,1,1-1.45,3.32,3.32,0,0,1,1.78-.43A2.53,2.53,0,0,1,267.21,257.33Zm-1.83,2.72c-1.4,0-2.09.48-2.09,1.38a.87.87,0,0,0,.35.71,1.51,1.51,0,0,0,.93.27,2.35,2.35,0,0,0,1.56-.57,1.66,1.66,0,0,0,.67-1.29V260Z"/><path class="cls-35" d="M270.91,256.8h1.53v.8h-1.53v3.95a.67.67,0,0,0,.13.49.58.58,0,0,0,.46.16h.79v.8h-.94a1.34,1.34,0,0,1-1.09-.4,1.58,1.58,0,0,1-.3-1.05V257.6h-1.25v-.8H270v-1.61l1-.39Z"/><path class="cls-35" d="M274.82,254.66a.64.64,0,0,1,.22.51.7.7,0,0,1-.22.51.74.74,0,0,1-1,0,.69.69,0,0,1-.2-.51.63.63,0,0,1,.2-.51.69.69,0,0,1,.52-.2A.69.69,0,0,1,274.82,254.66Zm0,2.14V263h-.95v-6.2Z"/><path class="cls-35" d="M281.57,257.59a3.76,3.76,0,0,1,0,4.61,2.85,2.85,0,0,1-2.23,1,2.77,2.77,0,0,1-2.22-1,3.34,3.34,0,0,1-.79-2.29,3.4,3.4,0,0,1,.79-2.32,3,3,0,0,1,4.43,0Zm-3.75.6a3.23,3.23,0,0,0,0,3.42,1.79,1.79,0,0,0,1.54.75,1.84,1.84,0,0,0,1.54-.75,3.23,3.23,0,0,0,0-3.42,1.84,1.84,0,0,0-1.54-.75A1.79,1.79,0,0,0,277.82,258.19Z"/><path class="cls-35" d="M288.83,259.19V263h-.95v-3.74c0-1.21-.56-1.81-1.64-1.81a1.51,1.51,0,0,0-1.11.46,2,2,0,0,0-.55,1.35V263h-1v-6.2h1v.91a2.14,2.14,0,0,1,.82-.79,2.25,2.25,0,0,1,1.12-.29C288.06,256.63,288.83,257.48,288.83,259.19Z"/><path class="cls-35" d="M295.66,254.44l3.19,7.3h0l3.18-7.3h1.22V263h-1v-6.81h0l-3,6.81h-.89l-3-6.81h0V263h-1v-8.56Z"/><path class="cls-35" d="M306.21,254.66a.61.61,0,0,1,.22.51.67.67,0,0,1-.22.51.69.69,0,0,1-.51.21.72.72,0,0,1-.52-.21.69.69,0,0,1-.2-.51.63.63,0,0,1,.2-.51.71.71,0,0,1,.52-.2A.69.69,0,0,1,306.21,254.66Zm0,2.14V263h-1v-6.2Z"/><path class="cls-35" d="M313.19,259.19V263h-1v-3.74c0-1.21-.55-1.81-1.63-1.81a1.51,1.51,0,0,0-1.11.46,2,2,0,0,0-.55,1.35V263h-1v-6.2h1v.91a2.14,2.14,0,0,1,.82-.79,2.25,2.25,0,0,1,1.12-.29C312.41,256.63,313.19,257.48,313.19,259.19Z"/><path class="cls-35" d="M316,254.66a.61.61,0,0,1,.22.51.67.67,0,0,1-.22.51.74.74,0,0,1-1,0,.69.69,0,0,1-.2-.51.63.63,0,0,1,.2-.51.69.69,0,0,1,.52-.2A.69.69,0,0,1,316,254.66Zm0,2.14V263h-1v-6.2Z"/><path class="cls-35" d="M323,259.19V263h-1v-3.74c0-1.21-.55-1.81-1.63-1.81a1.51,1.51,0,0,0-1.11.46,2,2,0,0,0-.55,1.35V263h-1v-6.2h1v.91a2.14,2.14,0,0,1,.82-.79,2.25,2.25,0,0,1,1.12-.29C322.19,256.63,323,257.48,323,259.19Z"/><path class="cls-35" d="M329.11,257.87V256.8h1v5.77c0,2-.95,3-2.83,3a3.08,3.08,0,0,1-1.92-.5,2.25,2.25,0,0,1-.83-1.51h1a1.32,1.32,0,0,0,.53.92,2.05,2.05,0,0,0,1.26.31c1.24,0,1.87-.69,1.87-2.06v-1.09a2.25,2.25,0,0,1-2.09,1.25,2.56,2.56,0,0,1-2-.89,3.65,3.65,0,0,1,0-4.43,2.51,2.51,0,0,1,2-.91A2.24,2.24,0,0,1,329.11,257.87Zm-3.4.22a2.62,2.62,0,0,0-.5,1.67,2.66,2.66,0,0,0,.44,1.6,1.76,1.76,0,0,0,1.5.69,1.79,1.79,0,0,0,1.46-.64,3,3,0,0,0,0-3.32,1.75,1.75,0,0,0-1.45-.67A1.73,1.73,0,0,0,325.71,258.09Z"/><path class="cls-35" d="M341.74,254.44v.85h-5.08v2.86h4.79V259h-4.79v3.14H342V263h-6.28v-8.56Z"/><path class="cls-35" d="M348.41,259.19V263h-1v-3.74c0-1.21-.55-1.81-1.63-1.81a1.51,1.51,0,0,0-1.11.46,2,2,0,0,0-.55,1.35V263h-1v-6.2h1v.91a2.14,2.14,0,0,1,.82-.79,2.25,2.25,0,0,1,1.12-.29C347.63,256.63,348.41,257.48,348.41,259.19Z"/><path class="cls-35" d="M354.55,257.87V256.8h1v5.77c0,2-.95,3-2.84,3a3,3,0,0,1-1.91-.5,2.25,2.25,0,0,1-.83-1.51h1a1.32,1.32,0,0,0,.53.92,2,2,0,0,0,1.25.31c1.25,0,1.88-.69,1.88-2.06v-1.09a2.25,2.25,0,0,1-2.09,1.25,2.56,2.56,0,0,1-2-.89,3.65,3.65,0,0,1,0-4.43,2.51,2.51,0,0,1,2-.91A2.24,2.24,0,0,1,354.55,257.87Zm-3.4.22a2.62,2.62,0,0,0-.5,1.67,2.66,2.66,0,0,0,.44,1.6,1.76,1.76,0,0,0,1.5.69,1.79,1.79,0,0,0,1.46-.64,3,3,0,0,0,0-3.32,1.75,1.75,0,0,0-1.45-.67A1.73,1.73,0,0,0,351.15,258.09Z"/><path class="cls-35" d="M358.3,254.66a.61.61,0,0,1,.22.51.67.67,0,0,1-.22.51.69.69,0,0,1-.51.21.72.72,0,0,1-.52-.21.69.69,0,0,1-.2-.51.63.63,0,0,1,.2-.51.71.71,0,0,1,.52-.2A.69.69,0,0,1,358.3,254.66Zm0,2.14V263h-1v-6.2Z"/><path class="cls-35" d="M365.29,259.19V263h-1v-3.74c0-1.21-.56-1.81-1.64-1.81a1.51,1.51,0,0,0-1.11.46,2,2,0,0,0-.55,1.35V263h-1v-6.2h1v.91a2.1,2.1,0,0,1,.83-.79,2.19,2.19,0,0,1,1.11-.29C364.51,256.63,365.29,257.48,365.29,259.19Z"/><path class="cls-35" d="M371.58,257.64a4.23,4.23,0,0,1,.72,2.53h-4.89a2.7,2.7,0,0,0,.56,1.62,1.79,1.79,0,0,0,1.4.57,1.92,1.92,0,0,0,1.23-.38,2.19,2.19,0,0,0,.63-1h.95a2.8,2.8,0,0,1-.83,1.46,2.88,2.88,0,0,1-2,.7,2.77,2.77,0,0,1-2.14-.88,3.86,3.86,0,0,1,0-4.69,2.92,2.92,0,0,1,4.38,0ZM368,258a2.43,2.43,0,0,0-.58,1.46h3.87c-.12-1.34-.78-2-2-2A1.77,1.77,0,0,0,368,258Z"/><g class="cls-36"><g class="cls-37"><rect class="cls-12" x="146" y="153" width="62" height="60"/></g></g><g class="cls-38"><g class="cls-37"><rect class="cls-11" x="173" y="179" width="62" height="61"/></g></g><g class="cls-39"><g class="cls-37"><rect class="cls-34" x="243.32" y="178.8" width="28.81" height="35.79"/></g></g><g class="cls-40"><g class="cls-37"><rect class="cls-34" x="264.97" y="178.8" width="29.84" height="35.79"/></g></g><g class="cls-41"><g class="cls-37"><g class="cls-3"><g class="cls-42"><g class="cls-43"><g class="cls-44"><rect class="cls-34" x="287.57" y="178.8" width="15.12" height="35.79"/></g></g><g class="cls-45"><g class="cls-44"><rect class="cls-34" x="297.32" y="178.8" width="33.74" height="35.79"/></g></g><g class="cls-46"><g class="cls-44"><rect class="cls-34" x="325.71" y="178.8" width="27.27" height="35.79"/></g></g></g></g></g></g></g></g></svg>