<?xml version="1.0" encoding="utf-8"?>
<!-- Generator: Adobe Illustrator 22.1.0, SVG Export Plug-In . SVG Version: 6.00 Build 0)  -->
<svg version="1.1" id="图层_1" xmlns="http://www.w3.org/2000/svg" xmlns:xlink="http://www.w3.org/1999/xlink" x="0px" y="0px"
	 viewBox="0 0 1024 66" style="enable-background:new 0 0 1024 66;" xml:space="preserve">
<style type="text/css">
	.st0{fill:#45a8cc;}
</style>
<g>
	<path class="st0" d="M109.3,32.2c-1.7-1.7-3.7-3-6-4s-4.7-1.5-7.4-1.5H18.4c-1.4,0-2.6-0.5-3.7-1.5s-1.6-2.2-1.6-3.6
		c0-1.5,0.5-2.7,1.6-3.7s2.3-1.5,3.7-1.5h85.5c1.9,0,3.5-0.7,4.8-2s2-2.9,2-4.8s-0.7-3.5-2-4.8s-2.9-2-4.8-2H18.7
		c-2.6,0-5.1,0.5-7.3,1.5s-4.2,2.3-5.9,4s-3,3.6-4,5.9c-1,2.2-1.5,4.7-1.5,7.3c0,2.6,0.5,5.1,1.5,7.3c1,2.2,2.3,4.2,4,5.9
		s3.6,3,5.9,4c2.2,1,4.7,1.5,7.3,1.5h77.9c1.4,0,2.6,0.5,3.6,1.5s1.5,2.3,1.5,3.8c0,1.4-0.5,2.6-1.5,3.6s-2.2,1.5-3.6,1.5H10.9
		c-1.9,0-3.5,0.7-4.8,2s-2,2.9-2,4.8c0,1.9,0.7,3.5,2,4.8s2.9,2,4.8,2h85c2.6,0,5.1-0.5,7.4-1.4s4.3-2.2,6-3.9s3-3.6,4-5.9
		c1-2.2,1.5-4.7,1.5-7.3s-0.5-5.1-1.5-7.4C112.3,35.8,111,33.8,109.3,32.2z"/>
	<path class="st0" d="M351.2,52.5L317.1,6.9c-1.6-2.2-3.6-3.8-6.2-5.1c-2.5-1.2-5.2-1.8-8-1.8c-3,0-5.8,0.7-8.4,2
		c-2.6,1.4-4.7,3.1-6.3,5.3l-34.1,45.9c-0.9,1-1.4,2.4-1.4,4.1c0,1.9,0.7,3.5,2,4.8c1.3,1.3,2.9,2,4.8,2c2.1,0,3.8-0.8,5.2-2.5
		l33-43.8c0.6-0.7,1.3-1.6,2.3-2.5s2-1.3,3-1.3s2,0.4,3,1.3s1.8,1.7,2.5,2.5l32.7,43.6c1.3,1.8,3.1,2.7,5.3,2.7c1.9,0,3.5-0.7,4.8-2
		s2-2.9,2-4.8c0-0.9-0.2-1.8-0.6-2.6C352.2,53.9,351.8,53.2,351.2,52.5z"/>
	<path class="st0" d="M302.9,40.2c-2.4,0-4.5,0.8-6.2,2.5s-2.5,3.7-2.5,6.2c0,2.4,0.8,4.5,2.5,6.2s3.7,2.5,6.2,2.5
		c2.4,0,4.5-0.8,6.2-2.5s2.5-3.7,2.5-6.2c0-2.4-0.8-4.5-2.5-6.2S305.4,40.2,302.9,40.2z"/>
	<path class="st0" d="M721,13.2c-2.1-2.9-4.7-5.3-7.6-7.2c-3-1.9-6.4-3-10.2-3.2h-64c-4,0-7.6,0.9-10.8,2.8s-5.9,4.3-8.1,7.2
		c-2.2,2.9-4,6.2-5.1,9.8c-1.2,3.6-1.8,7.2-1.8,10.7s0.6,7,1.7,10.5c1.1,3.6,2.7,6.8,4.8,9.7s4.7,5.3,7.6,7.2c3,1.9,6.4,3,10.2,3.2
		h64c4,0,7.6-0.9,10.8-2.8c3.2-1.9,5.9-4.3,8.1-7.2c2.2-2.9,4-6.2,5.1-9.8c1.2-3.6,1.8-7.2,1.8-10.7s-0.6-7-1.7-10.5
		C724.7,19.3,723.1,16.1,721,13.2z M713.8,39c-0.4,2-1.2,3.9-2.4,5.5c-1.2,1.7-2.8,3.1-4.8,4.3c-2.1,1.2-4.7,1.8-7.9,1.8H642
		c-3.3,0-5.9-0.6-7.9-1.8s-3.6-2.6-4.8-4.3s-2-3.5-2.4-5.5s-0.6-3.9-0.6-5.5c0-1.7,0.2-3.5,0.6-5.5c0.4-2,1.2-3.9,2.4-5.5
		c1.2-1.7,2.8-3.1,4.8-4.3c2-1.2,4.7-1.8,7.9-1.8h56.7c3.2,0,5.8,0.6,7.9,1.8c2.1,1.2,3.7,2.6,4.8,4.3c1.2,1.7,2,3.5,2.4,5.5
		s0.6,3.9,0.6,5.5C714.5,35.1,714.3,37,713.8,39z"/>
	<path class="st0" d="M873.3,48.6c-2.4,0-4.5,0.8-6.2,2.5s-2.5,3.7-2.5,6.2c0,2.4,0.8,4.5,2.5,6.2s3.7,2.5,6.2,2.5
		c2.4,0,4.5-0.8,6.2-2.5s2.5-3.7,2.5-6.2c0-2.4-0.8-4.5-2.5-6.2C877.8,49.4,875.7,48.6,873.3,48.6z"/>
	<path class="st0" d="M994.5,52.5L960.4,6.9c-1.6-2.2-3.6-3.8-6.2-5.1c-2.5-1.2-5.2-1.8-8-1.8c-3,0-5.8,0.7-8.4,2
		c-2.6,1.4-4.7,3.1-6.3,5.3l-34.1,45.9c-0.9,1-1.4,2.4-1.4,4.1c0,1.9,0.7,3.5,2,4.8s2.9,2,4.8,2c2.1,0,3.8-0.8,5.2-2.5l33-43.8
		c0.6-0.7,1.3-1.6,2.3-2.5s2-1.3,3-1.3s2,0.4,3,1.3s1.8,1.7,2.5,2.5l32.7,43.6c1.3,1.8,3.1,2.7,5.3,2.7c1.9,0,3.5-0.7,4.8-2
		s2-2.9,2-4.8c0-0.9-0.2-1.8-0.6-2.6C995.6,53.9,995.1,53.2,994.5,52.5z"/>
	<path class="st0" d="M946.3,40.2c-2.4,0-4.5,0.8-6.2,2.5s-2.5,3.7-2.5,6.2c0,2.4,0.8,4.5,2.5,6.2s3.7,2.5,6.2,2.5
		c2.4,0,4.5-0.8,6.2-2.5s2.5-3.7,2.5-6.2c0-2.4-0.8-4.5-2.5-6.2S948.7,40.2,946.3,40.2z"/>
	<path class="st0" d="M1022,4.8c-1.3-1.3-2.9-2-4.8-2c-1.9,0-3.5,0.7-4.8,2s-2,2.9-2,4.8v47.7c0,1.9,0.7,3.5,2,4.8s2.9,2,4.8,2
		c1.9,0,3.5-0.7,4.8-2s2-2.9,2-4.8V9.6C1024,7.7,1023.3,6.1,1022,4.8z"/>
	<path class="st0" d="M231.9,2.8c-1.9,0-3.6,0.5-5,1.6c-1.5,1.2-2.2,2.7-2.2,4.5v17.7h-82.5V10c0-2.2-0.6-3.9-1.9-5.2
		c-1.3-1.3-2.9-1.9-5-1.9c-2,0-3.7,0.7-4.8,2.1c-1.2,1.4-1.7,3-1.7,5v47.2c0,2,0.6,3.6,1.8,4.9c1.2,1.3,2.8,2,4.7,2
		c2.1,0,3.8-0.7,5.1-1.9c1.3-1.3,1.9-2.9,1.9-4.8V40.3h82.5v17.6c0,1.8,0.7,3.4,2.2,4.5c1.4,1.1,3.1,1.7,5,1.7
		c1.8,0,3.4-0.6,4.7-1.8s2-2.7,2-4.5V9.3c0-1.8-0.7-3.3-2-4.5C235.2,3.5,233.7,2.9,231.9,2.8z"/>
	<path class="st0" d="M470.2,2.8c-1.9-0.1-3.6,0.5-5,1.7c-1.5,1.3-2.2,2.8-2.2,4.7v36.6c-2.1-1.2-5-3.8-18.7-10.7
		c-14.6-7.3-36.8-16.3-66.1-31c-3.3-1.6-5.5-1.7-7.7-0.4c-2.2,1.3-3.3,3.4-3.3,6.2v46.7c0,4.8,2.3,7.3,6.7,7.3c2,0,3.7-0.7,4.9-2
		c1.2-1.3,1.8-3,1.8-4.9V20.8l86,42.7c1.3,0.7,2.6,1,3.8,1c1.5,0,2.8-0.5,4-1.4s2-2.2,2.2-3.8c0-0.1,0.1-0.5,0.1-4.2V10
		c0-1.9-0.6-3.6-1.9-4.9C473.7,3.7,472.1,3,470.2,2.8z M463.6,47L463.6,47L463.6,47L463.6,47z"/>
	<path class="st0" d="M593.2,2.8c-1.9-0.1-3.6,0.5-5,1.7c-1.5,1.3-2.2,2.8-2.2,4.7v36.6c-2.1-1.2-5-3.8-18.7-10.7
		c-14.6-7.3-36.8-16.3-66.1-31c-3.3-1.6-5.5-1.7-7.7-0.4c-2.2,1.3-3.3,3.4-3.3,6.2v46.7c0,4.8,2.3,7.3,6.7,7.3c2,0,3.7-0.7,4.9-2
		c1.2-1.3,1.8-3,1.8-4.9V20.8l86,42.7c1.3,0.7,2.6,1,3.8,1c1.5,0,2.8-0.5,4-1.4s2-2.2,2.2-3.8c0-0.1,0.1-0.5,0.1-4.2V10
		c0-1.9-0.6-3.6-1.9-4.9C596.7,3.7,595.1,3,593.2,2.8z M586.6,47L586.6,47L586.6,47L586.6,47z"/>
	<path class="st0" d="M844.2,2.8c-1.9-0.1-3.6,0.5-5,1.7c-1.5,1.3-2.2,2.8-2.2,4.7v36.6c-2.1-1.2-5-3.8-18.7-10.7
		c-14.6-7.3-36.8-16.3-66.1-31c-3.3-1.6-5.5-1.7-7.7-0.4c-2.2,1.3-3.3,3.4-3.3,6.2v46.7c0,4.8,2.3,7.3,6.7,7.3c2,0,3.7-0.7,4.9-2
		s1.8-3,1.8-4.9V20.8l86,42.7c1.3,0.7,2.6,1,3.8,1c1.5,0,2.8-0.5,4-1.4s2-2.2,2.2-3.8c0-0.1,0.1-0.5,0.1-4.2V10
		c0-1.9-0.6-3.6-1.9-4.9C847.7,3.7,846.1,3,844.2,2.8z M837.7,47L837.7,47L837.7,47L837.7,47z"/>
</g>
</svg>
