<?xml version="1.0" encoding="utf-8"?>
<!-- Generator: Adobe Illustrator 22.1.0, SVG Export Plug-In . SVG Version: 6.00 Build 0)  -->
<svg version="1.1" id="图层_1" xmlns="http://www.w3.org/2000/svg" xmlns:xlink="http://www.w3.org/1999/xlink" x="0px" y="0px"
	 viewBox="0 0 1024 1024" style="enable-background:new 0 0 1024 1024;" xml:space="preserve">
<style type="text/css">
	.st0{fill:#45a8cc;}
</style>
<path class="st0" d="M940.3,815.5L779.5,476H415.1l96.5-197.6L586.7,434h167.1L601.9,121.4C585,86.7,550.6,65,511.9,65
	c0,0-0.4,0-0.5,0c-38.7,0-73.2,21.6-90.2,56.3L174.4,627h509.9l86.2,182h-519l61.3-140H147.2L82.5,816.4c-14.5,31.1-12.1,67,6.3,96
	c18.5,29.2,50.2,46.6,84.7,46.6h676c34.6,0,66.4-17.5,84.9-46.7C952.9,883,955.1,846.8,940.3,815.5z"/>
</svg>
