<?xml version="1.0" encoding="utf-8"?>
<!-- Generator: Adobe Illustrator 22.1.0, SVG Export Plug-In . SVG Version: 6.00 Build 0)  -->
<svg version="1.1" id="图层_1" xmlns="http://www.w3.org/2000/svg" xmlns:xlink="http://www.w3.org/1999/xlink" x="0px" y="0px"
	 viewBox="0 0 1024 1024" style="enable-background:new 0 0 1024 1024;" xml:space="preserve">
<style type="text/css">
	.st0{fill:#6C8993;}
</style>
<path class="st0" d="M512,1023c-69.1,0-136.1-13.5-199.3-40.3C251.7,956.9,197,920,150,873c-47-47-83.9-101.7-109.7-162.7
	C13.5,647.1,0,580.1,0,511c0-74.1,15.5-145.6,46.1-212.5c29.5-64.6,71.4-121.5,124.6-169.1c26.3-23.6,66.8-21.3,90.4,5
	c23.6,26.3,21.3,66.8-5,90.4c-39.9,35.7-71.4,78.4-93.5,126.9C139.6,401.8,128,455.4,128,511c0,102.6,39.9,199,112.5,271.5
	C313,855.1,409.4,895,512,895c102.6,0,199-39.9,271.5-112.5C856.1,710,896,613.6,896,511c0-56.1-11.8-110.1-35.1-160.6
	c-22.5-48.8-54.5-91.7-94.9-127.4c-26.5-23.4-29-63.8-5.6-90.3c23.4-26.5,63.8-29,90.3-5.6c53.9,47.6,96.5,104.7,126.5,169.8
	c31.1,67.4,46.8,139.5,46.8,214.2c0,69.1-13.5,136.1-40.3,199.3C957.9,771.3,921,826,874,873c-47,47-101.8,83.9-162.7,109.7
	C648.2,1009.5,581.1,1023,512,1023z M576,447.5V64c0-35.3-28.7-64-64-64h0c-35.3,0-64,28.7-64,64v383.5c0,35.3,28.7,64,64,64h0
	C547.3,511.5,576,482.8,576,447.5z"/>
</svg>
