<?xml version="1.0" encoding="UTF-8"?>
<svg width="88px" height="88px" viewBox="0 0 88 88" version="1.1" xmlns="http://www.w3.org/2000/svg" xmlns:xlink="http://www.w3.org/1999/xlink">
    <!-- Generator: Sketch 52.6 (67491) - http://www.bohemiancoding.com/sketch -->
    <title>新闻抽取问题icon小-灰</title>
    <desc>Created with Sketch.</desc>
    <defs>
        <polygon id="path-1" points="0 0 87 0 87 88 0 88"></polygon>
    </defs>
    <g id="新闻抽取问题icon小-灰" stroke="none" stroke-width="1" fill="none" fill-rule="evenodd">
        <polygon id="Rectangle-3" fill="#93A2A7" transform="translate(27.500000, 38.500000) rotate(-180.000000) translate(-27.500000, -38.500000) " points="0 0 44 0 55 11 55 77 0 77"></polygon>
        <rect id="Rectangle" fill="#A8B6BA" fill-rule="nonzero" x="22" y="33" width="27" height="33"></rect>
        <rect id="Rectangle-Copy-4" fill="#A8B6BA" fill-rule="nonzero" x="6" y="11" width="43" height="11"></rect>
        <rect id="Rectangle-Copy" fill="#A8B6BA" fill-rule="nonzero" x="6" y="33" width="11" height="5"></rect>
        <rect id="Rectangle-Copy-2" fill="#A8B6BA" fill-rule="nonzero" x="6" y="44" width="11" height="5"></rect>
        <rect id="Rectangle-Copy-3" fill="#A8B6BA" fill-rule="nonzero" x="6" y="55" width="11" height="5"></rect>
        <polygon id="Path-4" fill="#B3C2C7" transform="translate(5.500000, 71.486940) rotate(-180.000000) translate(-5.500000, -71.486940) " points="3.55271368e-15 65.9738805 11 76.9738805 3.55271368e-15 77"></polygon>
        <g id="Group-3" transform="translate(1.000000, 0.000000)">
            <mask id="mask-2" fill="white">
                <use xlink:href="#path-1"></use>
            </mask>
            <g id="Clip-2"></g>
        </g>
        <path d="M86.9321366,76.5754262 L74.2096474,49.5463592 L45.3786145,49.5463592 L53.0137711,33.8144316 L58.2967655,44.8291129 L71.5131743,44.8291129 L60.1580783,21.314875 C58.8211952,18.552304 56.0993289,16 53.0373733,16 L52.9978444,16 C49.9359527,16 47.2061551,18.5444871 45.8614684,21.3070582 L26.3346973,61.5678392 L66.6774706,61.5678392 L73.4976152,76.0577397 L32.4347505,76.0577397 L36.6846203,66.2906033 L23.5811695,66.2906033 L19.063616,76.6470917 C17.9163821,79.1230006 17.4587934,82.4493054 18.9149029,84.7579729 C20.3784321,87.0827996 23.5338372,88 26.263315,88 L79.7481086,88 C82.4857096,88 85.6057433,86.9330312 87.0692725,84.6084015 C88.5329936,82.2755608 88.1031647,79.0672973 86.9321366,76.5754262" id="Fill-1" fill="#C9D4D8"></path>
    </g>
</svg>