<?xml version="1.0" encoding="UTF-8"?>
<svg width="1024px" height="1024px" viewBox="0 0 1024 1024" version="1.1" xmlns="http://www.w3.org/2000/svg" xmlns:xlink="http://www.w3.org/1999/xlink">
    <!-- Generator: Sketch 52.4 (67378) - http://www.bohemiancoding.com/sketch -->
    <title>pdf</title>
    <desc>Created with Sketch.</desc>
    <g id="pdf" stroke="none" stroke-width="1" fill="none" fill-rule="evenodd">
        <g id="PDF图标-(1)" fill="#FC7A7A" fill-rule="nonzero">
            <path d="M192,384 L832,384 C843.315904,384 854.168337,388.495225 862.16989,396.496777 C870.171442,404.49833 874.666667,415.350763 874.666667,426.666667 L874.666667,789.333333 C874.666667,812.897483 855.56415,832 832,832 L192,832 L192,938.666667 C192,944.324619 194.247613,949.750835 198.248389,953.751611 C202.249165,957.752387 207.675381,960 213.333333,960 L938.666667,960 C950.448741,960 960,950.448741 960,938.666667 L960,308.821333 L949.909333,298.666667 L823.381333,298.666667 C769.230918,298.666667 725.333333,254.769082 725.333333,200.618667 L725.333333,72.661333 L716.714667,64 L213.333333,64 C207.675381,64 202.249165,66.2476126 198.248389,70.2483886 C194.247613,74.2491646 192,79.6753813 192,85.333333 L192,384 Z M128,832 L42.666667,832 C19.1025175,832 2.88577603e-15,812.897483 0,789.333333 L0,426.666667 C-2.14868814e-14,415.350763 4.49522522,404.49833 12.4967774,396.496777 C20.4983296,388.495225 31.3507633,384 42.666667,384 L128,384 L128,85.333333 C128,38.2050345 166.205035,-2.88577599e-15 213.333333,0 L743.36,0 L1024,282.453333 L1024,938.666667 C1024,985.794965 985.794965,1024 938.666667,1024 L213.333333,1024 C166.205035,1024 128,985.794965 128,938.666667 L128,832 Z M88.469333,472.490667 L88.469333,746.666667 L133.397333,746.666667 L133.397333,641.450667 L201.365333,641.450667 C268.181333,641.450667 301.589333,613.034667 301.589333,556.586667 C301.589333,500.522667 268.181333,472.490667 202.133333,472.490667 L88.469333,472.490667 Z M133.397333,510.890667 L198.677333,510.890667 C218.261333,510.890667 232.853333,514.346667 242.069333,521.642667 C251.285333,528.554667 256.277333,540.074667 256.277333,556.586667 C256.277333,573.098667 251.669333,585.002667 242.453333,592.298667 C233.237333,599.210667 218.645333,603.050667 198.677333,603.050667 L133.397333,603.050667 L133.397333,510.890667 Z M339.989333,472.490667 L339.989333,746.666667 L440.213333,746.666667 C484.757333,746.666667 518.165333,734.378667 541.205333,709.802667 C563.093333,686.378667 574.229333,652.970667 574.229333,609.578667 C574.229333,565.802667 563.093333,532.394667 541.205333,509.354667 C518.165333,484.778667 484.757333,472.490667 440.213333,472.490667 L339.989333,472.490667 Z M384.917333,510.890667 L431.765333,510.890667 C465.941333,510.890667 490.901333,518.570667 506.645333,534.314667 C522.005333,549.674667 529.685333,575.018667 529.685333,609.578667 C529.685333,643.370667 522.005333,668.330667 506.645333,684.458667 C490.901333,700.202667 465.941333,708.266667 431.765333,708.266667 L384.917333,708.266667 L384.917333,510.890667 Z M616.469333,472.490667 L616.469333,746.666667 L661.397333,746.666667 L661.397333,625.322667 L795.413333,625.322667 L795.413333,586.922667 L661.397333,586.922667 L661.397333,510.890667 L803.477333,510.890667 L803.477333,472.490667 L616.469333,472.490667 Z" id="Shape"></path>
        </g>
    </g>
</svg>