<?xml version="1.0" encoding="UTF-8"?>
<svg width="88px" height="88px" viewBox="0 0 88 88" version="1.1" xmlns="http://www.w3.org/2000/svg" xmlns:xlink="http://www.w3.org/1999/xlink">
    <!-- Generator: Sketch 52.4 (67378) - http://www.bohemiancoding.com/sketch -->
    <title>pdf抽取icon小</title>
    <desc>Created with Sketch.</desc>
    <g id="pdf抽取icon小" stroke="none" stroke-width="1" fill="none" fill-rule="evenodd">
        <polygon id="Rectangle-3" fill="#2B50BB" points="0 0 44 0 55 11 55 77 0 77"></polygon>
        <polygon id="Path-4" fill="#8CA6F4" points="44 0 55 11 44 11.0261195"></polygon>
        <rect id="Rectangle-3-Copy" fill="#62D0FF" x="44" y="33" width="44" height="11"></rect>
        <rect id="Rectangle-3-Copy-5" fill="#62D0FF" x="22" y="33" width="11" height="11" rx="5.5"></rect>
        <rect id="Rectangle-3-Copy-4" fill="#62D0FF" x="44" y="11" width="44" height="11"></rect>
        <rect id="Rectangle-3-Copy-6" fill="#62D0FF" x="22" y="11" width="11" height="11" rx="5.5"></rect>
        <polygon id="Rectangle-3-Copy-2" fill="#62D0FF" points="44 55 88 55 88 66 44 66"></polygon>
        <path d="M27.5,55 L27.5,55 C30.5375661,55 33,57.4624339 33,60.5 L33,60.5 C33,63.5375661 30.5375661,66 27.5,66 L27.5,66 C24.4624339,66 22,63.5375661 22,60.5 L22,60.5 C22,57.4624339 24.4624339,55 27.5,55 Z" id="Rectangle-3-Copy-7" fill="#62D0FF"></path>
        <rect id="Rectangle-3-Copy-3" fill="#62D0FF" x="44" y="77" width="44" height="11"></rect>
        <rect id="Rectangle-3-Copy-8" fill="#62D0FF" x="22" y="77" width="11" height="11" rx="5.5"></rect>
    </g>
</svg>