<?xml version="1.0" encoding="utf-8"?>
<!-- Generator: Adobe Illustrator 22.1.0, SVG Export Plug-In . SVG Version: 6.00 Build 0)  -->
<svg version="1.1" id="图层_1" xmlns="http://www.w3.org/2000/svg" xmlns:xlink="http://www.w3.org/1999/xlink" x="0px" y="0px"
	 viewBox="0 0 236 63" style="enable-background:new 0 0 236 63;" xml:space="preserve">
<style type="text/css">
	.st0{opacity:0.1;}
	.st1{fill:#5299DC;}
</style>
<title>Group 2 Copy 2</title>
<desc>Created with Sketch.</desc>
<g id="_x3D_-" class="st0">
	<g id="主页-选择完成" transform="translate(-123.000000, -153.000000)">
		<g id="Group-2-Copy-2" transform="translate(123.000000, 153.000000)">
			<path id="Fill-4" class="st1" d="M23.2,11H12v17.3h11.2c5.4,0,8.9-3.5,8.9-8.6C32,14.5,28.6,11,23.2,11 M23.8,39.3H12V63H0V0
				h23.8C36.4,0,44,8.9,44,19.6S36.4,39.3,23.8,39.3"/>
			<path id="Fill-6" class="st1" d="M75,11H63.4v16.6H75c5.4,0,9-3.5,9-8.3C84,14.4,80.5,11,75,11z M84.7,63L72.3,37.9h-8.9V63H51V0
				h24.8c12.9,0,20.6,8.8,20.6,19.3c0,8.8-5.4,14.3-11.6,16.5L99,63H84.7z"/>
			<polygon id="Fill-8" class="st1" points="106,63 119,63 119,0 106,0 			"/>
			<polygon id="Fill-10" class="st1" points="174.7,63 174.7,26.3 162.7,50.2 154.4,50.2 142.3,26.3 142.3,63 130,63 130,0 142.1,0 
				158.5,34.1 174.9,0 187,0 187,63 			"/>
			<polygon id="Fill-11" class="st1" points="195,63 195,0 236,0 236,11 207.2,11 207.2,25.7 231.7,25.7 231.7,36.7 207.2,36.7 
				207.2,52 236,52 236,63 			"/>
		</g>
	</g>
</g>
</svg>
