<?xml version="1.0" encoding="UTF-8"?>
<svg width="101px" height="40px" viewBox="0 0 101 40" version="1.1" xmlns="http://www.w3.org/2000/svg" xmlns:xlink="http://www.w3.org/1999/xlink">
    <!-- Generator: Sketch 52.4 (67378) - http://www.bohemiancoding.com/sketch -->
    <title>prime-logo</title>
    <desc>Created with Sketch.</desc>
    <defs>
        <polygon id="path-1" points="0 40 100.985473 40 100.985473 0 0 0"></polygon>
    </defs>
    <g id="Symbols" stroke="none" stroke-width="1" fill="none" fill-rule="evenodd">
        <g id="header" transform="translate(-28.000000, -12.000000)">
            <g id="prime-logo" transform="translate(28.000000, 12.000000)">
                <polygon id="prime-logo-深蓝" fill="#2B50BB" points="0 26 26 26 26 0 0 0"></polygon>
                <polygon id="prime-logo-浅蓝" fill="#62D0FF" points="13.3744292 13.3333333 40.1232877 13.3333333 40.1232877 40 13.3744292 40"></polygon>
                <g id="prime-logo-字">
                    <path d="M54.9736082,15.7332184 L52.5198616,15.7332184 L52.5198616,19.4024138 L54.9736082,19.4024138 C56.1625489,19.4024138 56.9175123,18.6686207 56.9175123,17.5771264 C56.9175123,16.4858621 56.1625489,15.7332184 54.9736082,15.7332184 M55.1055078,21.7541379 L52.5198616,21.7541379 L52.5198616,26.7968966 L49.8963982,26.7968966 L49.8963982,13.4003448 L55.1055078,13.4003448 C57.88001,13.4003448 59.5409758,15.3003448 59.5409758,17.5771264 C59.5409758,19.853908 57.88001,21.7541379 55.1055078,21.7541379" id="Fill-4" fill="#000333"></path>
                    <path d="M66.0896037,15.7332184 L63.617179,15.7332184 L63.617179,19.2706897 L66.0896037,19.2706897 C67.2409575,19.2706897 67.995921,18.5366667 67.995921,17.5017241 C67.995921,16.4670115 67.2409575,15.7332184 66.0896037,15.7332184 Z M68.1280511,26.7968966 L65.5045877,21.4532184 L63.617179,21.4532184 L63.617179,26.7968966 L60.9937155,26.7968966 L60.9937155,13.4003448 L66.2595511,13.4003448 C68.9960055,13.4003448 70.6193845,15.2628736 70.6193845,17.5017241 C70.6193845,19.3835632 69.4680306,20.55 68.1658685,21.0205747 L71.1668137,26.7968966 L68.1280511,26.7968966 Z" id="Fill-6" fill="#000333"></path>
                    <mask id="mask-2" fill="white">
                        <use xlink:href="#path-1"></use>
                    </mask>
                    <g id="Clip-9"></g>
                    <polygon id="Fill-8" fill="#000333" mask="url(#mask-2)" points="72.5816438 26.7967816 75.2051073 26.7967816 75.2051073 13.4002299 72.5816438 13.4002299"></polygon>
                    <polygon id="Fill-10" fill="#000333" mask="url(#mask-2)" points="87.133092 26.7968736 87.133092 18.9883678 84.566124 24.0685977 82.7921674 24.0685977 80.2062906 18.9883678 80.2062906 26.7968736 77.5828272 26.7968736 77.5828272 13.4003218 80.1687039 13.4003218 83.6790304 20.6442299 87.1706788 13.4003218 89.7563249 13.4003218 89.7563249 26.7968736"></polygon>
                    <polygon id="Fill-11" fill="#000333" mask="url(#mask-2)" points="92.1338603 26.7968736 92.1338603 13.4003218 100.985657 13.4003218 100.985657 15.7331954 94.7573237 15.7331954 94.7573237 18.8754943 100.060977 18.8754943 100.060977 21.2085977 94.7573237 21.2085977 94.7573237 24.4637701 100.985657 24.4637701 100.985657 26.7968736"></polygon>
                </g>
            </g>
        </g>
    </g>
</svg>