<?xml version="1.0" encoding="UTF-8"?>
<svg width="16px" height="16px" viewBox="0 0 16 16" version="1.1" xmlns="http://www.w3.org/2000/svg" xmlns:xlink="http://www.w3.org/1999/xlink">
    <!-- Generator: Sketch 52.6 (67491) - http://www.bohemiancoding.com/sketch -->
    <title>Fill 1</title>
    <desc>Created with Sketch.</desc>
    <g id="=-" stroke="none" stroke-width="1" fill="none" fill-rule="evenodd">
        <g id="新闻抽取/跳转" transform="translate(-757.000000, -326.000000)" fill="#1C73FF">
            <g id="Group-4" transform="translate(757.000000, 324.000000)">
                <g id="Group-2">
                    <path d="M15.7559169,15.4612058 L12.8479194,9.4547465 L6.25796902,9.4547465 L8.00314767,5.95876259 L9.21068925,8.40646953 L12.2315827,8.40646953 L9.63613219,3.18108334 C9.33055889,2.56717867 8.70841803,2 8.00854246,2 L7.99950728,2 C7.29964633,2 6.67569259,2.56544159 6.36833564,3.17934626 L1.90507367,12.1261865 L11.126279,12.1261865 L12.6851692,15.3461644 L3.29937154,15.3461644 L4.27077035,13.1756896 L1.27569589,13.1756896 L0.243112239,15.4771315 C-0.0191126624,16.0273335 -0.123704374,16.7665123 0.209120664,17.2795495 C0.543641626,17.7961777 1.26487707,18 1.88875771,18 L14.1138534,18 C14.7395908,18 15.4527413,17.7628958 15.7872623,17.2463114 C16.1218271,16.7279024 16.0235805,16.0149549 15.7559169,15.4612058" id="Fill-1"></path>
                </g>
            </g>
        </g>
    </g>
</svg>