<?xml version="1.0" encoding="utf-8"?>
<!-- Generator: Adobe Illustrator 22.1.0, SVG Export Plug-In . SVG Version: 6.00 Build 0)  -->
<svg version="1.1" id="图层_1" xmlns="http://www.w3.org/2000/svg" xmlns:xlink="http://www.w3.org/1999/xlink" x="0px" y="0px"
	 viewBox="0 0 1024 1024" style="enable-background:new 0 0 1024 1024;" xml:space="preserve">
<style type="text/css">
	.st0{fill:#EAEAEA;}
	.st1{fill:#A9A9A9;}
</style>
<g>
	<path class="st0" d="M593.3,798.3c-15.3-33.6-11.8-71.9,10.4-113.8c53.3-100.5,107.9-251,49.5-348c-27.8-46.2-78.2-71.7-142-71.7
		c-64.3,0-115.1,25.9-143.1,73c-45.7,76.8-27.3,203,50.5,346.3c22.7,41.7,26.5,80,11.3,113.7c-30.7,68-124.7,88.1-223.2,110.8
		c-5,1.1-9.6,2.3-14,3.5C280.2,982.2,391.2,1024,512,1024c120.6,0,231.5-41.7,319-111.5c-4.7-1.3-9.7-2.6-15.1-3.8
		C717.5,886,623.9,865.4,593.3,798.3z"/>
	<path class="st0" d="M337.4,728.2C242.3,553.1,225,397.7,288.7,290.6c44.7-75.1,125.8-118.2,222.6-118.2
		c96,0,176.6,42.5,221.2,116.5c78.1,129.8,23.9,305.2-47.1,438.9c-19.9,37.5-20.4,51.2,151.3,90.8c25.9,6,47.9,13.8,66.5,23.7
		C978.6,753.2,1024,637.9,1024,512C1024,229.2,794.8,0,512,0S0,229.2,0,512c0,125.7,45.3,240.7,120.4,329.8
		c18.4-9.7,40.1-17.3,65.5-23.2C358.1,779,357.6,765.4,337.4,728.2z"/>
	<path class="st1" d="M192.7,912.2c4.4-1.2,9-2.4,14-3.5c98.5-22.7,192.6-42.9,223.2-110.8c15.2-33.7,11.4-72-11.3-113.7
		c-77.8-143.2-96.2-269.4-50.5-346.3c28-47.1,78.8-73,143.1-73c63.7,0,114.1,25.5,142,71.7c58.3,97,3.8,247.4-49.5,348
		c-22.2,41.9-25.7,80.2-10.4,113.8c30.6,67.1,124.2,87.7,222.6,110.4c5.4,1.2,10.4,2.5,15.1,3.8c26.3-21,50.5-44.5,72.2-70.2
		c-18.6-9.9-40.6-17.7-66.5-23.7C665,779,665.5,765.4,685.4,727.9c70.9-133.8,125.1-309.1,47.1-438.9
		c-44.5-74-125.2-116.5-221.2-116.5c-96.7,0-177.9,43.1-222.6,118.2c-63.7,107.1-46.4,262.5,48.7,437.6
		c20.2,37.2,20.7,50.7-151.5,90.4c-25.4,5.9-47.1,13.5-65.5,23.2C142.1,867.6,166.3,891.2,192.7,912.2z"/>
</g>
</svg>
